{"asset":{"version":"2.0","generator":"babylon.js glTF exporter for 3ds max 2015 v1.3.33"},"scene":0,"scenes":[{"nodes":[0,1,2,3,4,5,6,7,8,9,10,11,12,13],"extensions":{}}],"nodes":[{"mesh":0,"translation":[0.0,0.0,0.0],"rotation":[0.50000006,0.49999997,0.49999997,0.50000006],"scale":[0.0258815344,0.0258815363,0.0258815344],"name":"HQ17DD00"},{"mesh":1,"translation":[0.0,0.0,0.0],"rotation":[0.5,0.5,0.4999999,0.5000001],"scale":[0.0258815326,0.02588154,0.0258815382],"name":"HQ17DD01"},{"mesh":2,"translation":[0.0,0.0,0.0],"rotation":[0.5,0.5,0.4999999,0.5000001],"scale":[0.0258815326,0.02588154,0.0258815382],"name":"HQ17DD02"},{"mesh":3,"translation":[0.0,0.0,0.0],"rotation":[0.5,0.5,0.4999999,0.5000001],"scale":[0.0258815326,0.02588154,0.0258815382],"name":"HQ17DD03"},{"mesh":4,"translation":[0.0,0.0,0.0],"rotation":[0.5,0.5,0.4999999,0.5000001],"scale":[0.0258815326,0.02588154,0.0258815382],"name":"HQ17DD04"},{"mesh":5,"translation":[0.0,0.0,0.0],"rotation":[0.5,0.5,0.4999999,0.5000001],"scale":[0.0258815326,0.02588154,0.0258815382],"name":"HQ17DD05"},{"mesh":6,"translation":[0.0,0.0,0.0],"rotation":[0.5,0.5,0.4999999,0.5000001],"scale":[0.0258815326,0.02588154,0.0258815382],"name":"HQ17DD06"},{"mesh":7,"translation":[0.0,0.0,0.0],"rotation":[0.5,0.5,0.4999999,0.5000001],"scale":[0.0258815326,0.02588154,0.0258815382],"name":"HQ17DD07"},{"mesh":8,"translation":[0.0,0.0,0.0],"rotation":[0.5,0.5,0.4999999,0.5000001],"scale":[0.0258815326,0.02588154,0.0258815382],"name":"HQ17DD08"},{"mesh":9,"translation":[0.0,0.0,0.0],"rotation":[0.5,0.5,0.4999999,0.5000001],"scale":[0.0258815326,0.02588154,0.0258815382],"name":"HQ17DD09"},{"mesh":10,"translation":[0.0,0.0,0.0],"rotation":[0.5,0.5,0.4999999,0.5000001],"scale":[0.0258815326,0.02588154,0.0258815382],"name":"HQ17DD10"},{"mesh":11,"translation":[0.0,0.0,0.0],"rotation":[0.5,0.5,0.4999999,0.5000001],"scale":[0.0258815326,0.02588154,0.0258815382],"name":"HQ17DD11"},{"mesh":12,"translation":[0.0,0.0,0.0],"rotation":[0.5,0.5,0.4999999,0.5000001],"scale":[0.0258815326,0.02588154,0.0258815382],"name":"HQ17DD12"},{"translation":[0.0,0.0,0.0],"rotation":[0.0,0.0,0.0,1.0],"scale":[1.0,1.0,1.0],"name":"Default light"}],"meshes":[{"primitives":[{"attributes":{"POSITION":1,"NORMAL":2,"TEXCOORD_0":3},"indices":0,"mode":4,"material":0},{"attributes":{"POSITION":5,"NORMAL":6,"TEXCOORD_0":7},"indices":4,"mode":4,"material":1}],"name":"HQ17DD00"},{"primitives":[{"attributes":{"POSITION":9,"NORMAL":10,"TEXCOORD_0":11},"indices":8,"mode":4,"material":0}],"name":"HQ17DD01"},{"primitives":[{"attributes":{"POSITION":13,"NORMAL":14,"TEXCOORD_0":15},"indices":12,"mode":4,"material":0}],"name":"HQ17DD02"},{"primitives":[{"attributes":{"POSITION":17,"NORMAL":18,"TEXCOORD_0":19},"indices":16,"mode":4,"material":0}],"name":"HQ17DD03"},{"primitives":[{"attributes":{"POSITION":21,"NORMAL":22,"TEXCOORD_0":23},"indices":20,"mode":4,"material":0}],"name":"HQ17DD04"},{"primitives":[{"attributes":{"POSITION":25,"NORMAL":26,"TEXCOORD_0":27},"indices":24,"mode":4,"material":0}],"name":"HQ17DD05"},{"primitives":[{"attributes":{"POSITION":29,"NORMAL":30,"TEXCOORD_0":31},"indices":28,"mode":4,"material":0}],"name":"HQ17DD06"},{"primitives":[{"attributes":{"POSITION":33,"NORMAL":34,"TEXCOORD_0":35},"indices":32,"mode":4,"material":0}],"name":"HQ17DD07"},{"primitives":[{"attributes":{"POSITION":37,"NORMAL":38,"TEXCOORD_0":39},"indices":36,"mode":4,"material":0}],"name":"HQ17DD08"},{"primitives":[{"attributes":{"POSITION":41,"NORMAL":42,"TEXCOORD_0":43},"indices":40,"mode":4,"material":0}],"name":"HQ17DD09"},{"primitives":[{"attributes":{"POSITION":45,"NORMAL":46,"TEXCOORD_0":47},"indices":44,"mode":4,"material":0}],"name":"HQ17DD10"},{"primitives":[{"attributes":{"POSITION":49,"NORMAL":50,"TEXCOORD_0":51},"indices":48,"mode":4,"material":0}],"name":"HQ17DD11"},{"primitives":[{"attributes":{"POSITION":53,"NORMAL":54,"TEXCOORD_0":55},"indices":52,"mode":4,"material":0}],"name":"HQ17DD12"}],"accessors":[{"bufferView":0,"componentType":5123,"count":4698,"type":"SCALAR","name":"accessorIndices"},{"bufferView":1,"componentType":5126,"count":4698,"max":[124.983871,1215.57068,125.104736],"min":[-124.932281,-1442.29089,-124.811447],"type":"VEC3","name":"accessorPositions"},{"bufferView":1,"byteOffset":56376,"componentType":5126,"count":4698,"type":"VEC3","name":"accessorNormals"},{"bufferView":2,"componentType":5126,"count":4698,"type":"VEC2","name":"accessorUVs"},{"bufferView":0,"byteOffset":9396,"componentType":5123,"count":816,"type":"SCALAR","name":"accessorIndices"},{"bufferView":1,"byteOffset":112752,"componentType":5126,"count":816,"max":[74.23616,1442.29053,74.34747],"min":[-74.45824,1215.57068,-74.34694],"type":"VEC3","name":"accessorPositions"},{"bufferView":1,"byteOffset":122544,"componentType":5126,"count":816,"type":"VEC3","name":"accessorNormals"},{"bufferView":2,"byteOffset":37584,"componentType":5126,"count":816,"type":"VEC2","name":"accessorUVs"},{"bufferView":0,"byteOffset":11028,"componentType":5123,"count":468,"type":"SCALAR","name":"accessorIndices"},{"bufferView":1,"byteOffset":132336,"componentType":5126,"count":468,"max":[137.687531,1138.87537,-56.9124069],"min":[56.9999657,968.2937,-138.660538],"type":"VEC3","name":"accessorPositions"},{"bufferView":1,"byteOffset":137952,"componentType":5126,"count":468,"type":"VEC3","name":"accessorNormals"},{"bufferView":2,"byteOffset":44112,"componentType":5126,"count":468,"type":"VEC2","name":"accessorUVs"},{"bufferView":0,"byteOffset":11964,"componentType":5123,"count":468,"type":"SCALAR","name":"accessorIndices"},{"bufferView":1,"byteOffset":143568,"componentType":5126,"count":468,"max":[-57.22263,1138.87537,138.660339],"min":[-137.910233,968.2937,56.91221],"type":"VEC3","name":"accessorPositions"},{"bufferView":1,"byteOffset":149184,"componentType":5126,"count":468,"type":"VEC3","name":"accessorNormals"},{"bufferView":2,"byteOffset":47856,"componentType":5126,"count":468,"type":"VEC2","name":"accessorUVs"},{"bufferView":0,"byteOffset":12900,"componentType":5123,"count":468,"type":"SCALAR","name":"accessorIndices"},{"bufferView":1,"byteOffset":154800,"componentType":5126,"count":468,"max":[138.742737,1138.87537,137.606918],"min":[56.7856178,968.2937,57.129982],"type":"VEC3","name":"accessorPositions"},{"bufferView":1,"byteOffset":160416,"componentType":5126,"count":468,"type":"VEC3","name":"accessorNormals"},{"bufferView":2,"byteOffset":51600,"componentType":5126,"count":468,"type":"VEC2","name":"accessorUVs"},{"bufferView":0,"byteOffset":13836,"componentType":5123,"count":468,"type":"SCALAR","name":"accessorIndices"},{"bufferView":1,"byteOffset":166032,"componentType":5126,"count":468,"max":[-56.9945221,1138.87537,-57.13962],"min":[-138.742752,968.2937,-137.827316],"type":"VEC3","name":"accessorPositions"},{"bufferView":1,"byteOffset":171648,"componentType":5126,"count":468,"type":"VEC3","name":"accessorNormals"},{"bufferView":2,"byteOffset":55344,"componentType":5126,"count":468,"type":"VEC2","name":"accessorUVs"},{"bufferView":0,"byteOffset":14772,"componentType":5123,"count":48,"type":"SCALAR","name":"accessorIndices"},{"bufferView":1,"byteOffset":177264,"componentType":5126,"count":48,"max":[132.02034,-1059.22717,131.059586],"min":[46.543644,-1442.28064,45.5827827],"type":"VEC3","name":"accessorPositions"},{"bufferView":1,"byteOffset":177840,"componentType":5126,"count":48,"type":"VEC3","name":"accessorNormals"},{"bufferView":2,"byteOffset":59088,"componentType":5126,"count":48,"type":"VEC2","name":"accessorUVs"},{"bufferView":0,"byteOffset":14868,"componentType":5123,"count":144,"type":"SCALAR","name":"accessorIndices"},{"bufferView":1,"byteOffset":178416,"componentType":5126,"count":144,"max":[-91.3772354,-833.123962,112.838768],"min":[-111.87709,-1442.20374,92.3389053],"type":"VEC3","name":"accessorPositions"},{"bufferView":1,"byteOffset":180144,"componentType":5126,"count":144,"type":"VEC3","name":"accessorNormals"},{"bufferView":2,"byteOffset":59472,"componentType":5126,"count":144,"type":"VEC2","name":"accessorUVs"},{"bufferView":0,"byteOffset":15156,"componentType":5123,"count":144,"type":"SCALAR","name":"accessorIndices"},{"bufferView":1,"byteOffset":181872,"componentType":5126,"count":144,"max":[112.727539,-833.124,111.766708],"min":[92.22766,-1442.20361,91.2668839],"type":"VEC3","name":"accessorPositions"},{"bufferView":1,"byteOffset":183600,"componentType":5126,"count":144,"type":"VEC3","name":"accessorNormals"},{"bufferView":2,"byteOffset":60624,"componentType":5126,"count":144,"type":"VEC2","name":"accessorUVs"},{"bufferView":0,"byteOffset":15444,"componentType":5123,"count":48,"type":"SCALAR","name":"accessorIndices"},{"bufferView":1,"byteOffset":185328,"componentType":5126,"count":48,"max":[-45.6931458,-1059.227,131.426727],"min":[-130.465134,-1442.28088,46.6549377],"type":"VEC3","name":"accessorPositions"},{"bufferView":1,"byteOffset":185904,"componentType":5126,"count":48,"type":"VEC3","name":"accessorNormals"},{"bufferView":2,"byteOffset":61776,"componentType":5126,"count":48,"type":"VEC2","name":"accessorUVs"},{"bufferView":0,"byteOffset":15540,"componentType":5123,"count":144,"type":"SCALAR","name":"accessorIndices"},{"bufferView":1,"byteOffset":186480,"componentType":5126,"count":144,"max":[-92.44943,-833.123962,-91.26594],"min":[-112.949272,-1442.20361,-111.765808],"type":"VEC3","name":"accessorPositions"},{"bufferView":1,"byteOffset":188208,"componentType":5126,"count":144,"type":"VEC3","name":"accessorNormals"},{"bufferView":2,"byteOffset":62160,"componentType":5126,"count":144,"type":"VEC2","name":"accessorUVs"},{"bufferView":0,"byteOffset":15828,"componentType":5123,"count":48,"type":"SCALAR","name":"accessorIndices"},{"bufferView":1,"byteOffset":189936,"componentType":5126,"count":48,"max":[-46.7653732,-1059.227,-45.5818024],"min":[-132.242081,-1442.28064,-131.05864],"type":"VEC3","name":"accessorPositions"},{"bufferView":1,"byteOffset":190512,"componentType":5126,"count":48,"type":"VEC3","name":"accessorNormals"},{"bufferView":2,"byteOffset":63312,"componentType":5126,"count":48,"type":"VEC2","name":"accessorUVs"},{"bufferView":0,"byteOffset":15924,"componentType":5123,"count":48,"type":"SCALAR","name":"accessorIndices"},{"bufferView":1,"byteOffset":191088,"componentType":5126,"count":48,"max":[130.243332,-1059.22717,-46.6539726],"min":[45.47138,-1442.281,-131.425781],"type":"VEC3","name":"accessorPositions"},{"bufferView":1,"byteOffset":191664,"componentType":5126,"count":48,"type":"VEC3","name":"accessorNormals"},{"bufferView":2,"byteOffset":63696,"componentType":5126,"count":48,"type":"VEC2","name":"accessorUVs"},{"bufferView":0,"byteOffset":16020,"componentType":5123,"count":144,"type":"SCALAR","name":"accessorIndices"},{"bufferView":1,"byteOffset":192240,"componentType":5126,"count":144,"max":[111.655266,-833.123962,-92.33795],"min":[91.15546,-1442.20374,-112.837784],"type":"VEC3","name":"accessorPositions"},{"bufferView":1,"byteOffset":193968,"componentType":5126,"count":144,"type":"VEC3","name":"accessorNormals"},{"bufferView":2,"byteOffset":64080,"componentType":5126,"count":144,"type":"VEC2","name":"accessorUVs"}],"bufferViews":[{"buffer":0,"byteLength":16308,"name":"bufferViewScalar"},{"buffer":0,"byteOffset":16308,"byteLength":195696,"byteStride":12,"name":"bufferViewFloatVec3"},{"buffer":0,"byteOffset":212004,"byteLength":65232,"byteStride":8,"name":"bufferViewFloatVec2"}],"buffers":[{"uri":"红旗17导弹.bin","byteLength":277236}],"materials":[{"pbrMetallicRoughness":{"baseColorFactor":[0.3267404,0.412891567,0.486120045,1.0],"metallicFactor":0.17554827,"roughnessFactor":0.77},"emissiveFactor":[0.0,0.0,0.0],"alphaMode":"OPAQUE","name":"stage"},{"pbrMetallicRoughness":{"baseColorFactor":[0.145814732,0.163936064,0.206219167,1.0],"metallicFactor":0.693320334,"roughnessFactor":0.78},"emissiveFactor":[0.0,0.0,0.0],"alphaMode":"OPAQUE","name":"head"}]}