{"accessors":[{"name":"Mseh_0_positions","bufferView":0,"byteOffset":0,"componentType":5126,"count":6300,"type":"VEC3","min":[-7.852659702301025,-0.451365590095520,-8.714624404907227],"max":[7.852651119232178,3.500864982604980,8.714662551879883]},{"name":"Mseh_1_normals","bufferView":1,"byteOffset":0,"componentType":5126,"count":6300,"type":"VEC3","min":[-0.999996483325958,-0.999992847442627,-0.999590873718262],"max":[0.999996483325958,0.999999880790710,0.907313346862793]},{"name":"Mseh_2_texcoords","bufferView":2,"byteOffset":0,"componentType":5126,"count":6300,"type":"VEC2","min":[0.051153000444174,0.006778001785278],"max":[0.990207016468048,0.998660981655121]},{"name":"Mseh_3_colour","bufferView":3,"byteOffset":0,"componentType":5126,"count":6300,"type":"VEC4","min":[0.501960813999176,0.000000000000000,0.000000000000000,0.247058823704720],"max":[0.501960813999176,0.000000000000000,0.000000000000000,0.247058823704720]},{"name":"Mseh_4_indices","bufferView":4,"byteOffset":0,"componentType":5125,"count":6300,"type":"SCALAR","min":[0],"max":[6299]},{"name":"Mseh_5_positions","bufferView":0,"byteOffset":75600,"componentType":5126,"count":84,"type":"VEC3","min":[-0.516384541988373,0.541514694690704,6.739653110504150],"max":[0.516373753547668,0.732769191265106,7.485754966735840]},{"name":"Mseh_6_normals","bufferView":1,"byteOffset":75600,"componentType":5126,"count":84,"type":"VEC3","min":[-0.829518854618073,0.558126866817474,-0.033041004091501],"max":[0.805829823017120,0.937893986701965,0.491184949874878]},{"name":"Mseh_7_texcoords","bufferView":2,"byteOffset":50400,"componentType":5126,"count":84,"type":"VEC2","min":[0.802708983421326,0.274878978729248],"max":[0.850948989391327,0.303084969520569]},{"name":"Mseh_8_colour","bufferView":3,"byteOffset":100800,"componentType":5126,"count":84,"type":"VEC4","min":[0.501960813999176,0.000000000000000,0.000000000000000,0.247058823704720],"max":[0.501960813999176,0.000000000000000,0.000000000000000,0.247058823704720]},{"name":"Mseh_9_indices","bufferView":4,"byteOffset":25200,"componentType":5125,"count":84,"type":"SCALAR","min":[0],"max":[83]}],"asset":{"generator":"EarthView-CesiumModelTool","version":"2.0"},"bufferViews":[{"name":"bufferView__positions","buffer":0,"byteLength":76608,"byteOffset":0,"byteStride":12,"target":34962},{"name":"bufferView__normals","buffer":0,"byteLength":76608,"byteOffset":76608,"byteStride":12,"target":34962},{"name":"bufferView__texcoords","buffer":0,"byteLength":51072,"byteOffset":153216,"byteStride":8,"target":34962},{"name":"bufferView__colour","buffer":0,"byteLength":102144,"byteOffset":204288,"byteStride":16,"target":34962},{"name":"bufferView__indices","buffer":0,"byteLength":25536,"byteOffset":306432,"target":34963}],"materials":[{"name":"hj6_Material_5fa07d51-6fc3-11e9-261d-4c16346f430b","pbrMetallicRoughness":{"baseColorTexture":{"index":0},"baseColorFactor":[1.000000,1.000000,1.000000,1.000000],"metallicFactor":0,"roughnessFactor":1},"emissiveFactor":[0.000000,0.000000,0.000000],"alphaMode":"OPAQUE","doubleSided":true},{"name":"hj6_Material_5fcdcee0-6fc3-11e9-261d-4c16346f430b","pbrMetallicRoughness":{"baseColorFactor":[0.164706,0.243137,0.301961,1.000000],"metallicFactor":0,"roughnessFactor":1},"emissiveFactor":[0.000000,0.000000,0.000000],"alphaMode":"OPAQUE","doubleSided":true}],"meshes":[{"name":"Mseh_4","primitives":[{"attributes":{"POSITION":0,"NORMAL":1,"TEXCOORD_0":2},"indices":4,"material":0,"mode":4}]},{"name":"Mseh_9","primitives":[{"attributes":{"POSITION":5,"NORMAL":6,"TEXCOORD_0":7,"COLOR_0":8},"indices":9,"material":1,"mode":4}]}],"nodes":[{"name":"Mseh_0","mesh":0},{"name":"Mseh_1","mesh":1}],"samplers":[{"magFilter":9729,"minFilter":9729,"wrapS":10497,"wrapT":10497}],"scene":0,"buffers":[{"name":"H6.mesh","byteLength":331968,"uri":"data:application/gltf-buffer;base64,"}],"scenes":[{"nodes":[0,1]}],"textures":[{"name":"hj6_Material_5fa07d51-6fc3-11e9-261d-4c16346f430b","sampler":0,"source":0}],"images":[{"name":"h6.jpg","uri":"h6.jpg"}]}