{
    "accessors": [
        {
            "name": "Mseh_0_positions",
            "bufferView": 0,
            "byteOffset": 0,
            "componentType": 5126,
            "count": 32,
            "type": "VEC3",
            "min": [
                -7.547841072082520,
                -7.771936416625977,
                -48.599639892578125
            ],
            "max": [
                7.549680709838867,
                3.613256216049194,
                -18.695121765136719
            ]
        },
        {
            "name": "Mseh_1_normals",
            "bufferView": 1,
            "byteOffset": 0,
            "componentType": 5126,
            "count": 32,
            "type": "VEC3",
            "min": [
                -1.000000000000000,
                -0.707106888294220,
                -0.000000153343208
            ],
            "max": [
                0.000000087422777,
                1.000000000000000,
                0.000000046050356
            ]
        },
        {
            "name": "Mseh_2_texcoords",
            "bufferView": 2,
            "byteOffset": 0,
            "componentType": 5126,
            "count": 32,
            "type": "VEC2",
            "min": [
                0.000499218702316,
                0.000499725341797
            ],
            "max": [
                0.999500751495361,
                0.999500274658203
            ]
        },
        {
            "name": "Mseh_3_indices",
            "bufferView": 4,
            "byteOffset": 0,
            "componentType": 5125,
            "count": 48,
            "type": "SCALAR",
            "min": [
                0
            ],
            "max": [
                31
            ]
        },
        {
            "name": "Mseh_4_positions",
            "bufferView": 0,
            "byteOffset": 384,
            "componentType": 5126,
            "count": 3720,
            "type": "VEC3",
            "min": [
                -11.265518188476563,
                -3.602852344512939,
                -22.174190521240234
            ],
            "max": [
                11.189167976379395,
                5.034052371978760,
                11.688939094543457
            ]
        },
        {
            "name": "Mseh_5_normals",
            "bufferView": 1,
            "byteOffset": 384,
            "componentType": 5126,
            "count": 3720,
            "type": "VEC3",
            "min": [
                -1.000000000000000,
                -1.000000000000000,
                -0.999999880790710
            ],
            "max": [
                1.000000000000000,
                1.000000000000000,
                1.000000000000000
            ]
        },
        {
            "name": "Mseh_6_colour",
            "bufferView": 3,
            "byteOffset": 0,
            "componentType": 5126,
            "count": 3720,
            "type": "VEC4",
            "min": [
                1.000000000000000,
                1.000000000000000,
                1.000000000000000,
                1.000000000000000
            ],
            "max": [
                1.000000000000000,
                1.000000000000000,
                1.000000000000000,
                1.000000000000000
            ]
        },
        {
            "name": "Mseh_7_indices",
            "bufferView": 4,
            "byteOffset": 192,
            "componentType": 5125,
            "count": 9231,
            "type": "SCALAR",
            "min": [
                0
            ],
            "max": [
                3719
            ]
        }
    ],
    "asset": {
        "generator": "EarthView-CesiumModelTool",
        "version": "2.0"
    },
    "bufferViews": [
        {
            "name": "bufferView__positions",
            "buffer": 0,
            "byteLength": 45024,
            "byteOffset": 0,
            "byteStride": 12,
            "target": 34962
        },
        {
            "name": "bufferView__normals",
            "buffer": 0,
            "byteLength": 45024,
            "byteOffset": 45024,
            "byteStride": 12,
            "target": 34962
        },
        {
            "name": "bufferView__texcoords",
            "buffer": 0,
            "byteLength": 256,
            "byteOffset": 90048,
            "byteStride": 8,
            "target": 34962
        },
        {
            "name": "bufferView__colour",
            "buffer": 0,
            "byteLength": 59520,
            "byteOffset": 90304,
            "byteStride": 16,
            "target": 34962
        },
        {
            "name": "bufferView__indices",
            "buffer": 0,
            "byteLength": 37116,
            "byteOffset": 149824,
            "target": 34963
        }
    ],
    "materials": [
        {
            "name": "b6c54430-6787-11ec-5910-3897444a2309Material#25",
            "pbrMetallicRoughness": {
                "baseColorTexture": {
                    "index": 0
                },
                "baseColorFactor": [
                    0.000000,
                    0.000000,
                    0.000000,
                    0.000000
                ],
                "metallicFactor": 0,
                "roughnessFactor": 1
            },
            "emissiveFactor": [
                0.000000,
                0.000000,
                0.000000
            ],
            "alphaMode": "BLEND",
            "doubleSided": true,
            "useInstancedColor":false
        },
        {
            "name": "b6c4a7f0-6787-11ec-5910-3897444a23094e568cc0_a6f7_11eb_4051_0bd3735d503cJ1601",
            "pbrMetallicRoughness": {
                "baseColorFactor": [
                    0.000000,
                    0.000000,
                    0.000000,
                    0.000000
                ],
                "metallicFactor": 0,
                "roughnessFactor": 1
            },
            "emissiveFactor": [
                0.000000,
                0.000000,
                0.000000
            ],
            "alphaMode": "OPAQUE",
            "doubleSided": true,
            "useInstancedColor":true
        }
    ],
    "meshes": [
        {
            "name": "Mseh_3",
            "primitives": [
                {
                    "attributes": {
                        "POSITION": 0,
                        "NORMAL": 1,
                        "TEXCOORD_0": 2
                    },
                    "indices": 3,
                    "material": 0,
                    "mode": 4
                }
            ]
        },
        {
            "name": "Mseh_7",
            "primitives": [
                {
                    "attributes": {
                        "POSITION": 4,
                        "NORMAL": 5,
                        "COLOR_0": 6
                    },
                    "indices": 7,
                    "material": 1,
                    "mode": 4
                }
            ]
        }
    ],
    "nodes": [
        {
            "name": "J16",
            "children": [
                1
            ],
            "scale": [
                0.001000000047497,
                0.001000000047497,
                0.001000000047497
            ]
        },
        {
            "name": "J16",
            "children": [
                2,
                4
            ]
        },
        {
            "name": "firework001",
            "children": [
                3
            ],
            "scale": [
                128.000000000000966,
                128.000000000000483,
                128.000000000000512
            ],
            "translation": [
                1859.246948242187500,
                -2081.502685546875000,
                -33648.304687500000000
            ],
            "rotation": [
                0.000000043711389,
                0.999999999999998,
                0.000000005180160,
                -0.000000043711388
            ]
        },
        {
            "name": "mesh_1",
            "mesh": 0,
            "scale": [
                7.812499628926120,
                7.812499628926148,
                7.812499628926148
            ],
            "translation": [
                14.525391186259021,
                16.261741184479789,
                -262.877378932766987
            ],
            "rotation": [
                0.000000043711389,
                0.999999999999998,
                0.000000005180160,
                0.000000043711388
            ]
        },
        {
            "name": "J16",
            "children": [
                5
            ],
            "scale": [
                1600.000000000000000,
                1600.000000000000000,
                1600.000000000000000
            ],
            "translation": [
                -33.964721679687500,
                -1027.705322265625000,
                -10436.333007812500000
            ]
        },
        {
            "name": "mesh_0",
            "mesh": 1,
            "scale": [
                0.624999970314094,
                0.624999970314094,
                0.624999970314094
            ],
            "translation": [
                0.021227951049805,
                0.642315826416016,
                6.522708129882813
            ]
        }
    ],
    "samplers": [
        {
            "magFilter": 9729,
            "minFilter": 9729,
            "wrapS": 10497,
            "wrapT": 10497
        }
    ],
    "scene": 0,
    "buffers": [
        {
            "name": "J16.mesh",
            "byteLength": 186940,
            "uri": "data:application/gltf-buffer;base64,"
        }
    ],
    "scenes": [
        {
            "nodes": [
                0
            ]
        }
    ],
    "textures": [
        {
            "name": "b6c54430-6787-11ec-5910-3897444a2309Material#25",
            "sampler": 0,
            "source": 0
        }
    ],
    "images": [
        {
            "name": "wakeFlame.png",
            "uri": "wakeFlame.png"
        }
    ]
}