{
    "accessors": [
        {
            "name": "Mseh_0_positions",
            "bufferView": 0,
            "byteOffset": 0,
            "componentType": 5126,
            "count": 32,
            "type": "VEC3",
            "min": [
                -6.897371768951416,
                -6.045888900756836,
                -49.145664215087891
            ],
            "max": [
                6.660133361816406,
                5.344819068908691,
                -19.218954086303711
            ]
        },
        {
            "name": "Mseh_1_normals",
            "bufferView": 1,
            "byteOffset": 0,
            "componentType": 5126,
            "count": 32,
            "type": "VEC3",
            "min": [
                -1.000000000000000,
                -0.707106888294220,
                -0.000000141796846
            ],
            "max": [
                0.000000087422777,
                1.000000000000000,
                0.000000034503994
            ]
        },
        {
            "name": "Mseh_2_texcoords",
            "bufferView": 2,
            "byteOffset": 0,
            "componentType": 5126,
            "count": 32,
            "type": "VEC2",
            "min": [
                0.000499218702316,
                0.000499725341797
            ],
            "max": [
                0.999500751495361,
                0.999500274658203
            ]
        },
        {
            "name": "Mseh_3_indices",
            "bufferView": 4,
            "byteOffset": 0,
            "componentType": 5125,
            "count": 48,
            "type": "SCALAR",
            "min": [
                0
            ],
            "max": [
                31
            ]
        },
        {
            "name": "Mseh_4_positions",
            "bufferView": 0,
            "byteOffset": 384,
            "componentType": 5126,
            "count": 5831,
            "type": "VEC3",
            "min": [
                -10.305382728576660,
                -1.932194232940674,
                -20.442550659179688
            ],
            "max": [
                9.948538780212402,
                3.553444623947144,
                11.941941261291504
            ]
        },
        {
            "name": "Mseh_5_normals",
            "bufferView": 1,
            "byteOffset": 384,
            "componentType": 5126,
            "count": 5831,
            "type": "VEC3",
            "min": [
                -1.000000000000000,
                -0.999999940395355,
                -1.000000000000000
            ],
            "max": [
                1.000000000000000,
                0.999961435794830,
                1.000000000000000
            ]
        },
        {
            "name": "Mseh_6_colour",
            "bufferView": 3,
            "byteOffset": 0,
            "componentType": 5126,
            "count": 5831,
            "type": "VEC4",
            "min": [
                1.000000000000000,
                1.000000000000000,
                1.000000000000000,
                1.000000000000000
            ],
            "max": [
                1.000000000000000,
                1.000000000000000,
                1.000000000000000,
                1.000000000000000
            ]
        },
        {
            "name": "Mseh_7_indices",
            "bufferView": 4,
            "byteOffset": 192,
            "componentType": 5125,
            "count": 17583,
            "type": "SCALAR",
            "min": [
                0
            ],
            "max": [
                5830
            ]
        },
        {
            "name": "Mseh_8_positions",
            "bufferView": 0,
            "byteOffset": 70356,
            "componentType": 5126,
            "count": 15,
            "type": "VEC3",
            "min": [
                0.180622279644012,
                -0.037318464368582,
                -5.356353282928467
            ],
            "max": [
                0.350839376449585,
                0.153800666332245,
                -4.820743560791016
            ]
        },
        {
            "name": "Mseh_9_normals",
            "bufferView": 1,
            "byteOffset": 70356,
            "componentType": 5126,
            "count": 15,
            "type": "VEC3",
            "min": [
                -0.682511627674103,
                -0.831027269363403,
                -0.931612908840179
            ],
            "max": [
                0.946897089481354,
                0.721310555934906,
                0.680788218975067
            ]
        },
        {
            "name": "Mseh_10_indices",
            "bufferView": 4,
            "byteOffset": 70524,
            "componentType": 5125,
            "count": 54,
            "type": "SCALAR",
            "min": [
                0
            ],
            "max": [
                14
            ]
        },
        {
            "name": "Mseh_11_positions",
            "bufferView": 0,
            "byteOffset": 70536,
            "componentType": 5126,
            "count": 34,
            "type": "VEC3",
            "min": [
                0.180256053805351,
                -0.576849758625031,
                -4.842559337615967
            ],
            "max": [
                1.155181646347046,
                0.397981435060501,
                -4.819320201873779
            ]
        },
        {
            "name": "Mseh_12_normals",
            "bufferView": 1,
            "byteOffset": 70536,
            "componentType": 5126,
            "count": 34,
            "type": "VEC3",
            "min": [
                -0.113573417067528,
                -0.099715076386929,
                -0.994917213916779
            ],
            "max": [
                0.113567411899567,
                0.127406015992165,
                -0.991745471954346
            ]
        },
        {
            "name": "Mseh_13_indices",
            "bufferView": 4,
            "byteOffset": 70740,
            "componentType": 5125,
            "count": 96,
            "type": "SCALAR",
            "min": [
                0
            ],
            "max": [
                33
            ]
        },
        {
            "name": "Mseh_14_positions",
            "bufferView": 0,
            "byteOffset": 70944,
            "componentType": 5126,
            "count": 16,
            "type": "VEC3",
            "min": [
                0.349857091903687,
                -0.411088436841965,
                -4.565856456756592
            ],
            "max": [
                0.985580682754517,
                0.224573552608490,
                -4.556996822357178
            ]
        },
        {
            "name": "Mseh_15_normals",
            "bufferView": 1,
            "byteOffset": 70944,
            "componentType": 5126,
            "count": 16,
            "type": "VEC3",
            "min": [
                -0.000002129266477,
                0.013928093016148,
                -0.999903023242950
            ],
            "max": [
                0.000000758927342,
                0.013938902877271,
                -0.999902844429016
            ]
        },
        {
            "name": "Mseh_16_indices",
            "bufferView": 4,
            "byteOffset": 71124,
            "componentType": 5125,
            "count": 42,
            "type": "SCALAR",
            "min": [
                0
            ],
            "max": [
                15
            ]
        },
        {
            "name": "Mseh_17_positions",
            "bufferView": 0,
            "byteOffset": 71136,
            "componentType": 5126,
            "count": 32,
            "type": "VEC3",
            "min": [
                0.276604592800140,
                -0.480663806200027,
                -4.830220699310303
            ],
            "max": [
                1.058833122253418,
                0.301489055156708,
                -4.556996822357178
            ]
        },
        {
            "name": "Mseh_18_normals",
            "bufferView": 1,
            "byteOffset": 71136,
            "componentType": 5126,
            "count": 32,
            "type": "VEC3",
            "min": [
                -0.950070142745972,
                -0.946193337440491,
                -0.284791588783264
            ],
            "max": [
                0.950070142745972,
                0.953762173652649,
                -0.258313119411469
            ]
        },
        {
            "name": "Mseh_19_indices",
            "bufferView": 4,
            "byteOffset": 71292,
            "componentType": 5125,
            "count": 90,
            "type": "SCALAR",
            "min": [
                0
            ],
            "max": [
                31
            ]
        }
    ],
    "asset": {
        "generator": "EarthView-CesiumModelTool",
        "version": "2.0"
    },
    "bufferViews": [
        {
            "name": "bufferView__positions",
            "buffer": 0,
            "byteLength": 71520,
            "byteOffset": 0,
            "byteStride": 12,
            "target": 34962
        },
        {
            "name": "bufferView__normals",
            "buffer": 0,
            "byteLength": 71520,
            "byteOffset": 71520,
            "byteStride": 12,
            "target": 34962
        },
        {
            "name": "bufferView__texcoords",
            "buffer": 0,
            "byteLength": 256,
            "byteOffset": 143040,
            "byteStride": 8,
            "target": 34962
        },
        {
            "name": "bufferView__colour",
            "buffer": 0,
            "byteLength": 93296,
            "byteOffset": 143296,
            "byteStride": 16,
            "target": 34962
        },
        {
            "name": "bufferView__indices",
            "buffer": 0,
            "byteLength": 71652,
            "byteOffset": 236592,
            "target": 34963
        }
    ],
    "materials": [
        {
            "name": "c187f6e0-6784-11ec-5910-3897444a2309Material#25",
            "pbrMetallicRoughness": {
                "baseColorTexture": {
                    "index": 0
                },
                "baseColorFactor": [
                    0.000000,
                    0.000000,
                    0.000000,
                    0.000000
                ],
                "metallicFactor": 0,
                "roughnessFactor": 1
            },
            "emissiveFactor": [
                0.000000,
                0.000000,
                0.000000
            ],
            "alphaMode": "BLEND",
            "doubleSided": true,
            "useInstancedColor":false
        },
        {
            "name": "c1870c80-6784-11ec-5910-3897444a2309b9456d80_a6f7_11eb_4051_0bd3735d503cJ2001",
            "pbrMetallicRoughness": {
                "baseColorFactor": [
                    0.000000,
                    0.000000,
                    0.000000,
                    0.000000
                ],
                "metallicFactor": 0,
                "roughnessFactor": 1
            },
            "emissiveFactor": [
                0.000000,
                0.000000,
                0.000000
            ],
            "alphaMode": "OPAQUE",
            "doubleSided": true,
            "useInstancedColor":true
        }
    ],
    "meshes": [
        {
            "name": "Mseh_3",
            "primitives": [
                {
                    "attributes": {
                        "POSITION": 0,
                        "NORMAL": 1,
                        "TEXCOORD_0": 2
                    },
                    "indices": 3,
                    "material": 0,
                    "mode": 4
                }
            ]
        },
        {
            "name": "Mseh_7",
            "primitives": [
                {
                    "attributes": {
                        "POSITION": 4,
                        "NORMAL": 5,
                        "COLOR_0": 6
                    },
                    "indices": 7,
                    "material": 1,
                    "mode": 4
                }
            ]
        },
        {
            "name": "Mseh_10",
            "primitives": [
                {
                    "attributes": {
                        "POSITION": 8,
                        "NORMAL": 9
                    },
                    "indices": 10,
                    "material": 1,
                    "mode": 4
                }
            ]
        },
        {
            "name": "Mseh_13",
            "primitives": [
                {
                    "attributes": {
                        "POSITION": 11,
                        "NORMAL": 12
                    },
                    "indices": 13,
                    "material": 1,
                    "mode": 4
                }
            ]
        },
        {
            "name": "Mseh_16",
            "primitives": [
                {
                    "attributes": {
                        "POSITION": 14,
                        "NORMAL": 15
                    },
                    "indices": 16,
                    "material": 1,
                    "mode": 4
                }
            ]
        },
        {
            "name": "Mseh_19",
            "primitives": [
                {
                    "attributes": {
                        "POSITION": 17,
                        "NORMAL": 18
                    },
                    "indices": 19,
                    "material": 1,
                    "mode": 4
                }
            ]
        }
    ],
    "nodes": [
        {
            "name": "j20",
            "children": [
                1
            ],
            "scale": [
                0.001000000047497,
                0.001000000047497,
                0.001000000047497
            ]
        },
        {
            "name": "j20",
            "children": [
                2,
                4
            ],
            "scale": [
                1600.000000000000000,
                1600.000000000000000,
                1600.000000000000000
            ],
            "translation": [
                0.125091552734375,
                0.173406004905701,
                6.545608997344971
            ]
        },
        {
            "name": "firework005",
            "children": [
                3
            ],
            "scale": [
                0.079999998211861,
                0.079999998211861,
                0.079999998211861
            ],
            "translation": [
                0.605984330177307,
                -0.222267732024193,
                -21.360519409179688
            ],
            "rotation": [
                0.000000043711388,
                0.999999999999998,
                0.000000005180160,
                -0.000000043711388
            ]
        },
        {
            "name": "mesh_5",
            "mesh": 0,
            "scale": [
                7.812499803549096,
                7.812499803549125,
                7.812499803549125
            ],
            "translation": [
                7.575805155055330,
                2.776994081405781,
                -266.955360320303100
            ],
            "rotation": [
                0.000000043711388,
                0.999999999999998,
                0.000000005180160,
                0.000000043711388
            ]
        },
        {
            "name": "J20",
            "children": [
                5,
                6,
                7,
                8,
                9,
                10,
                11,
                12,
                13
            ],
            "translation": [
                -0.125091552734375,
                -0.173406004905701,
                -6.545608520507813
            ]
        },
        {
            "name": "mesh_1",
            "mesh": 1,
            "scale": [
                0.624999970314094,
                0.624999970314094,
                0.624999970314094
            ],
            "translation": [
                0.125013370513916,
                0.173297626152635,
                6.541517514884473
            ]
        },
        {
            "name": "mesh_0",
            "mesh": 2
        },
        {
            "name": "mesh_0",
            "mesh": 2,
            "scale": [
                1.000000339961328,
                0.999996614670426,
                1.000001904509183
            ],
            "translation": [
                -1.310452075965016,
                0.000001208892201,
                0.000010581479271
            ],
            "rotation": [
                -0.000003778678210,
                -0.000003765019188,
                0.000000356094733,
                0.999999999985710
            ]
        },
        {
            "name": "mesh_2",
            "mesh": 3
        },
        {
            "name": "mesh_2",
            "mesh": 3,
            "translation": [
                -1.310440453059836,
                0.000000016799362,
                0.000000448690141
            ],
            "rotation": [
                -0.000000000000000,
                0.000000000000000,
                -0.000000000000000,
                1.000000000000000
            ]
        },
        {
            "name": "mesh_3",
            "mesh": 4
        },
        {
            "name": "mesh_3",
            "mesh": 4,
            "translation": [
                -1.229256099511177,
                0.000000854989640,
                0.000000448690141
            ],
            "rotation": [
                0.000000000036983,
                -0.000000000000230,
                0.000000000016527,
                1.000000000000000
            ]
        },
        {
            "name": "mesh_4",
            "mesh": 5
        },
        {
            "name": "mesh_4",
            "mesh": 5,
            "translation": [
                -1.310445817477611,
                0.000000016799362,
                0.000000448690141
            ],
            "rotation": [
                0.000000000000000,
                -0.000000000000000,
                0.000000000000000,
                1.000000000000000
            ]
        }
    ],
    "samplers": [
        {
            "magFilter": 9729,
            "minFilter": 9729,
            "wrapS": 10497,
            "wrapT": 10497
        }
    ],
    "scene": 0,
    "buffers": [
        {
            "name": "J20.mesh",
            "byteLength": 308244,
            "uri": "data:application/gltf-buffer;base64,"
        }
    ],
    "scenes": [
        {
            "nodes": [
                0
            ]
        }
    ],
    "textures": [
        {
            "name": "c187f6e0-6784-11ec-5910-3897444a2309Material#25",
            "sampler": 0,
            "source": 0
        }
    ],
    "images": [
        {
            "name": "wakeFlame.png",
            "uri": "wakeFlame.png"
        }
    ]
}