{"accessors":[{"name":"Mseh_0_positions","bufferView":0,"byteOffset":0,"componentType":5126,"count":4976,"type":"VEC3","min":[-0.119899019598961,-0.036373928189278,-0.175248309969902],"max":[0.118804357945919,0.086178757250309,0.372437059879303]},{"name":"Mseh_1_normals","bufferView":1,"byteOffset":0,"componentType":5126,"count":4976,"type":"VEC3","min":[-1.000000000000000,-1.000000000000000,-1.000000000000000],"max":[1.000000000000000,1.000000000000000,1.000000000000000]},{"name":"Mseh_2_texcoords","bufferView":2,"byteOffset":0,"componentType":5126,"count":4976,"type":"VEC2","min":[0.006092971190810,0.012143135070801],"max":[0.996191978454590,0.985363304615021]},{"name":"Mseh_3_indices","bufferView":3,"byteOffset":0,"componentType":5125,"count":15267,"type":"SCALAR","min":[0],"max":[4975]}],"asset":{"generator":"EarthView-CesiumModelTool","version":"2.0"},"bufferViews":[{"name":"bufferView__positions","buffer":0,"byteLength":59712,"byteOffset":0,"byteStride":12,"target":34962},{"name":"bufferView__normals","buffer":0,"byteLength":59712,"byteOffset":59712,"byteStride":12,"target":34962},{"name":"bufferView__texcoords","buffer":0,"byteLength":39808,"byteOffset":119424,"byteStride":8,"target":34962},{"name":"bufferView__indices","buffer":0,"byteLength":61068,"byteOffset":159232,"target":34963}],"materials":[{"name":"eb04b4b1-a6f3-11eb-4051-0bd3735d503cj8001","pbrMetallicRoughness":{"baseColorTexture":{"index":0},"baseColorFactor":[1.000000,1.000000,1.000000,1.000000],"metallicFactor":0,"roughnessFactor":1},"emissiveFactor":[0.000000,0.000000,0.000000],"alphaMode":"OPAQUE","doubleSided":true}],"meshes":[{"name":"Mseh_3","primitives":[{"attributes":{"POSITION":0,"NORMAL":1,"TEXCOORD_0":2},"indices":3,"material":0,"mode":4}]}],"nodes":[{"name":"J8F","children":[1],"scale":[1,1,1]},{"name":"J8F_f0","children":[2],"translation":[-0.006838541477919,-2.193734645843506,3.869125843048096]},{"name":"mesh_1","mesh":0,"scale":[39.370079215952522,39.370079215952522,39.370079215952522],"translation":[0.006838541477919,2.193734645843506,-3.869125843048096]}],"samplers":[{"magFilter":9729,"minFilter":9729,"wrapS":10497,"wrapT":10497}],"scene":0,"buffers":[{"name":"J8F.mesh","byteLength":220300,"uri":"data:application/gltf-buffer;base64,"}],"scenes":[{"nodes":[0]}],"textures":[{"name":"eb04b4b1-a6f3-11eb-4051-0bd3735d503cj8001","sampler":0,"source":0}],"images":[{"name":"J8F_Diffuse.jpg","uri":"data:image/ktx;base64,"}]}