{
    "accessors": [
        {
            "name": "Mseh_0_positions",
            "bufferView": 0,
            "byteOffset": 0,
            "componentType": 5126,
            "count": 18051,
            "type": "VEC3",
            "min": [
                -10.194285392761230,
                -3.793735504150391,
                -22.207942962646484
            ],
            "max": [
                10.194285392761230,
                6.398779869079590,
                16.185087203979492
            ]
        },
        {
            "name": "Mseh_1_normals",
            "bufferView": 1,
            "byteOffset": 0,
            "componentType": 5126,
            "count": 18051,
            "type": "VEC3",
            "min": [
                -1.000000000000000,
                -1.000000000000000,
                -1.000000000000000
            ],
            "max": [
                1.000000000000000,
                1.000000000000000,
                1.000000000000000
            ]
        },
        {
            "name": "Mseh_2_colour",
            "bufferView": 3,
            "byteOffset": 0,
            "componentType": 5126,
            "count": 18051,
            "type": "VEC4",
            "min": [
                1.000000000000000,
                1.000000000000000,
                1.000000000000000,
                1.000000000000000
            ],
            "max": [
                1.000000000000000,
                1.000000000000000,
                1.000000000000000,
                1.000000000000000
            ]
        },
        {
            "name": "Mseh_3_indices",
            "bufferView": 4,
            "byteOffset": 0,
            "componentType": 5125,
            "count": 19761,
            "type": "SCALAR",
            "min": [
                0
            ],
            "max": [
                18050
            ]
        },
        {
            "name": "Mseh_4_positions",
            "bufferView": 0,
            "byteOffset": 216612,
            "componentType": 5126,
            "count": 32,
            "type": "VEC3",
            "min": [
                -5.525648117065430,
                -5.180077552795410,
                -42.692161560058594
            ],
            "max": [
                5.525650978088379,
                3.711220741271973,
                -19.330715179443359
            ]
        },
        {
            "name": "Mseh_5_normals",
            "bufferView": 1,
            "byteOffset": 216612,
            "componentType": 5126,
            "count": 32,
            "type": "VEC3",
            "min": [
                0.000000000000000,
                -1.000000000000000,
                -0.000000130479179
            ],
            "max": [
                1.000000000000000,
                0.707107007503510,
                -0.000000106221314
            ]
        },
        {
            "name": "Mseh_6_texcoords",
            "bufferView": 2,
            "byteOffset": 0,
            "componentType": 5126,
            "count": 32,
            "type": "VEC2",
            "min": [
                0.000499218702316,
                0.000499725341797
            ],
            "max": [
                0.999500751495361,
                0.999500274658203
            ]
        },
        {
            "name": "Mseh_7_indices",
            "bufferView": 4,
            "byteOffset": 79044,
            "componentType": 5125,
            "count": 48,
            "type": "SCALAR",
            "min": [
                0
            ],
            "max": [
                31
            ]
        }
    ],
    "asset": {
        "generator": "EarthView-CesiumModelTool",
        "version": "2.0"
    },
    "bufferViews": [
        {
            "name": "bufferView__positions",
            "buffer": 0,
            "byteLength": 216996,
            "byteOffset": 0,
            "byteStride": 12,
            "target": 34962
        },
        {
            "name": "bufferView__normals",
            "buffer": 0,
            "byteLength": 216996,
            "byteOffset": 216996,
            "byteStride": 12,
            "target": 34962
        },
        {
            "name": "bufferView__texcoords",
            "buffer": 0,
            "byteLength": 256,
            "byteOffset": 433992,
            "byteStride": 8,
            "target": 34962
        },
        {
            "name": "bufferView__colour",
            "buffer": 0,
            "byteLength": 288816,
            "byteOffset": 434248,
            "byteStride": 16,
            "target": 34962
        },
        {
            "name": "bufferView__indices",
            "buffer": 0,
            "byteLength": 79236,
            "byteOffset": 723064,
            "target": 34963
        }
    ],
    "materials": [
        {
            "name": "5bbc2f40-67af-11ec-62b9-583f228d7735956508b0_b162_11eb_1e55_40a66d7648aeJH704",
            "pbrMetallicRoughness": {
                "baseColorFactor": [
                    0.000000,
                    0.000000,
                    0.000000,
                    0.000000
                ],
                "metallicFactor": 0,
                "roughnessFactor": 1
            },
            "emissiveFactor": [
                0.000000,
                0.000000,
                0.000000
            ],
            "alphaMode": "OPAQUE",
            "doubleSided": true,
            "useInstancedColor":true
        },
        {
            "name": "5bbea040-67af-11ec-62b9-583f228d7735Material#25",
            "pbrMetallicRoughness": {
                "baseColorTexture": {
                    "index": 0
                },
                "baseColorFactor": [
                    0.000000,
                    0.000000,
                    0.000000,
                    0.000000
                ],
                "metallicFactor": 0,
                "roughnessFactor": 1
            },
            "emissiveFactor": [
                0.000000,
                0.000000,
                0.000000
            ],
            "alphaMode": "BLEND",
            "doubleSided": true,
            "useInstancedColor":false
        }
    ],
    "meshes": [
        {
            "name": "Mseh_3",
            "primitives": [
                {
                    "attributes": {
                        "POSITION": 0,
                        "NORMAL": 1,
                        "COLOR_0": 2
                    },
                    "indices": 3,
                    "material": 0,
                    "mode": 4
                }
            ]
        },
        {
            "name": "Mseh_7",
            "primitives": [
                {
                    "attributes": {
                        "POSITION": 4,
                        "NORMAL": 5,
                        "TEXCOORD_0": 6
                    },
                    "indices": 7,
                    "material": 1,
                    "mode": 4
                }
            ]
        }
    ],
    "nodes": [
        {
            "name": "JH7A",
            "children": [
                1
            ],
            "scale": [
                0.001000000047497,
                0.001000000047497,
                0.001000000047497
            ]
        },
        {
            "name": "JH7A",
            "children": [
                2,
                4
            ],
            "scale": [
                400.000000000000000,
                400.000000000000000,
                400.000000000000000
            ],
            "translation": [
                -0.000002861022949,
                0.000000000000000,
                0.000000000000000
            ]
        },
        {
            "name": "JH7A",
            "children": [
                3
            ],
            "translation": [
                0.000002861022722,
                -12.336070060729980,
                -7.528594970703125
            ]
        },
        {
            "name": "mesh_0",
            "mesh": 0,
            "scale": [
                2.499999881256378,
                2.499999881256378,
                2.499999881256378
            ],
            "translation": [
                -0.000002853870164,
                12.336070060729982,
                7.528594970703126
            ]
        },
        {
            "name": "Plane001",
            "children": [
                5
            ],
            "scale": [
                0.250000000000000,
                0.249999955296518,
                0.249999955296518
            ],
            "translation": [
                2.700002908706665,
                -1.836071014404297,
                -77.528594970703125
            ],
            "rotation": [
                0.999999999999998,
                0.000000000000000,
                0.000000000000000,
                -0.000000059604655
            ]
        },
        {
            "name": "mesh_1",
            "mesh": 1,
            "scale": [
                9.999999525025510,
                10.000001313165015,
                10.000001313165015
            ],
            "translation": [
                -10.800011606216433,
                -7.344322339405771,
                -310.114434460083146
            ],
            "rotation": [
                0.999999999999998,
                0.000000000000000,
                0.000000000000000,
                0.000000059604655
            ]
        }
    ],
    "samplers": [
        {
            "magFilter": 9729,
            "minFilter": 9729,
            "wrapS": 10497,
            "wrapT": 10497
        }
    ],
    "scene": 0,
    "buffers": [
        {
            "name": "JH7A.mesh",
            "byteLength": 802300,
            "uri": "data:application/gltf-buffer;base64,"
        }
    ],
    "scenes": [
        {
            "nodes": [
                0
            ]
        }
    ],
    "textures": [
        {
            "name": "5bbea040-67af-11ec-62b9-583f228d7735Material#25",
            "sampler": 0,
            "source": 0
        }
    ],
    "images": [
        {
            "name": "wakeFlame.png",
            "uri": "wakeFlame.png"
        }
    ]
}