{
    "accessors": [
        {
            "name": "Mseh_0_positions",
            "bufferView": 0,
            "byteOffset": 0,
            "componentType": 5126,
            "count": 32,
            "type": "VEC3",
            "min": [
                -8.393032073974609,
                -7.113038539886475,
                -57.855400085449219
            ],
            "max": [
                8.393047332763672,
                7.113039493560791,
                -20.477081298828125
            ]
        },
        {
            "name": "Mseh_1_normals",
            "bufferView": 1,
            "byteOffset": 0,
            "componentType": 5126,
            "count": 32,
            "type": "VEC3",
            "min": [
                0.000000000000000,
                -1.000000000000000,
                -0.000000176048346
            ],
            "max": [
                1.000000000000000,
                0.707106947898865,
                -0.000000077971656
            ]
        },
        {
            "name": "Mseh_2_texcoords",
            "bufferView": 2,
            "byteOffset": 0,
            "componentType": 5126,
            "count": 32,
            "type": "VEC2",
            "min": [
                0.000499218702316,
                0.000499725341797
            ],
            "max": [
                0.999500751495361,
                0.999500274658203
            ]
        },
        {
            "name": "Mseh_3_indices",
            "bufferView": 4,
            "byteOffset": 0,
            "componentType": 5125,
            "count": 48,
            "type": "SCALAR",
            "min": [
                0
            ],
            "max": [
                31
            ]
        },
        {
            "name": "Mseh_4_positions",
            "bufferView": 0,
            "byteOffset": 384,
            "componentType": 5126,
            "count": 5766,
            "type": "VEC3",
            "min": [
                -11.775268554687500,
                -2.501772880554199,
                -25.613559722900391
            ],
            "max": [
                11.775268554687500,
                6.897114276885986,
                14.481105804443359
            ]
        },
        {
            "name": "Mseh_5_normals",
            "bufferView": 1,
            "byteOffset": 384,
            "componentType": 5126,
            "count": 5766,
            "type": "VEC3",
            "min": [
                -1.000000000000000,
                -1.000000000000000,
                -1.000000000000000
            ],
            "max": [
                1.000000000000000,
                1.000000000000000,
                1.000000000000000
            ]
        },
        {
            "name": "Mseh_6_colour",
            "bufferView": 3,
            "byteOffset": 0,
            "componentType": 5126,
            "count": 5766,
            "type": "VEC4",
            "min": [
                1.000000000000000,
                1.000000000000000,
                1.000000000000000,
                1.000000000000000
            ],
            "max": [
                1.000000000000000,
                1.000000000000000,
                1.000000000000000,
                1.000000000000000
            ]
        },
        {
            "name": "Mseh_7_indices",
            "bufferView": 4,
            "byteOffset": 192,
            "componentType": 5125,
            "count": 5766,
            "type": "SCALAR",
            "min": [
                0
            ],
            "max": [
                5765
            ]
        }
    ],
    "asset": {
        "generator": "EarthView-CesiumModelTool",
        "version": "2.0"
    },
    "bufferViews": [
        {
            "name": "bufferView__positions",
            "buffer": 0,
            "byteLength": 69576,
            "byteOffset": 0,
            "byteStride": 12,
            "target": 34962
        },
        {
            "name": "bufferView__normals",
            "buffer": 0,
            "byteLength": 69576,
            "byteOffset": 69576,
            "byteStride": 12,
            "target": 34962
        },
        {
            "name": "bufferView__texcoords",
            "buffer": 0,
            "byteLength": 256,
            "byteOffset": 139152,
            "byteStride": 8,
            "target": 34962
        },
        {
            "name": "bufferView__colour",
            "buffer": 0,
            "byteLength": 92256,
            "byteOffset": 139408,
            "byteStride": 16,
            "target": 34962
        },
        {
            "name": "bufferView__indices",
            "buffer": 0,
            "byteLength": 23256,
            "byteOffset": 231664,
            "target": 34963
        }
    ],
    "materials": [
        {
            "name": "cbf7ed80-67b4-11ec-62b9-583f228d7735Material#25",
            "pbrMetallicRoughness": {
                "baseColorTexture": {
                    "index": 0
                },
                "baseColorFactor": [
                    0.000000,
                    0.000000,
                    0.000000,
                    0.000000
                ],
                "metallicFactor": 0,
                "roughnessFactor": 1
            },
            "emissiveFactor": [
                0.000000,
                0.000000,
                0.000000
            ],
            "alphaMode": "BLEND",
            "doubleSided": true,
            "useInstancedColor":false
        },
        {
            "name": "cbf70320-67b4-11ec-62b9-583f228d7735j8_Material_35c1eca1_6fc6_11e9_26c0_7f6255871ee9",
            "pbrMetallicRoughness": {
                "baseColorFactor": [
                    0.000000,
                    0.000000,
                    0.000000,
                    0.000000
                ],
                "metallicFactor": 0,
                "roughnessFactor": 1
            },
            "emissiveFactor": [
                0.000000,
                0.000000,
                0.000000
            ],
            "alphaMode": "OPAQUE",
            "doubleSided": true,
            "useInstancedColor":true
        }
    ],
    "meshes": [
        {
            "name": "Mseh_3",
            "primitives": [
                {
                    "attributes": {
                        "POSITION": 0,
                        "NORMAL": 1,
                        "TEXCOORD_0": 2
                    },
                    "indices": 3,
                    "material": 0,
                    "mode": 4
                }
            ]
        },
        {
            "name": "Mseh_7",
            "primitives": [
                {
                    "attributes": {
                        "POSITION": 4,
                        "NORMAL": 5,
                        "COLOR_0": 6
                    },
                    "indices": 7,
                    "material": 1,
                    "mode": 4
                }
            ]
        }
    ],
    "nodes": [
        {
            "name": "JZ8F",
            "children": [
                1
            ],
            "scale": [
                0.001000000047497,
                0.001000000047497,
                0.001000000047497
            ]
        },
        {
            "name": "JZ8F",
            "children": [
                2,
                4
            ],
            "scale": [
                3200.000000000000000,
                3200.000000000000000,
                3200.000000000000000
            ],
            "translation": [
                -0.000001788139343,
                0.000000000000000,
                0.000000000000000
            ]
        },
        {
            "name": "plane001",
            "children": [
                3
            ],
            "scale": [
                0.049999993294477,
                0.049999993294478,
                0.049999993294478
            ],
            "translation": [
                -5.139997005462646,
                2.100000381469727,
                -26.239450454711914
            ],
            "rotation": [
                0.999999999999997,
                0.000000000000000,
                0.000000000000000,
                -0.000000075497903
            ]
        },
        {
            "name": "mesh_1",
            "mesh": 0,
            "scale": [
                6.250000541331334,
                6.250000541331262,
                6.250000541331262
            ],
            "translation": [
                102.799953906976981,
                41.999934021084776,
                -524.789085815752173
            ],
            "rotation": [
                0.999999999999997,
                0.000000000000000,
                0.000000000000000,
                0.000000075497903
            ]
        },
        {
            "name": "JZ8F",
            "children": [
                5
            ],
            "translation": [
                0.000001788139230,
                -0.229999899864197,
                -1.739449858665466
            ]
        },
        {
            "name": "mesh_0",
            "mesh": 1,
            "scale": [
                0.312499985157047,
                0.312499985157047,
                0.312499985157047
            ],
            "translation": [
                -0.000001787580436,
                0.229999899864197,
                1.739449858665466
            ]
        }
    ],
    "samplers": [
        {
            "magFilter": 9729,
            "minFilter": 9729,
            "wrapS": 10497,
            "wrapT": 10497
        }
    ],
    "scene": 0,
    "buffers": [
        {
            "name": "JZ8F.mesh",
            "byteLength": 254920,
            "uri": "data:application/gltf-buffer;base64,"
        }
    ],
    "scenes": [
        {
            "nodes": [
                0
            ]
        }
    ],
    "textures": [
        {
            "name": "cbf7ed80-67b4-11ec-62b9-583f228d7735Material#25",
            "sampler": 0,
            "source": 0
        }
    ],
    "images": [
        {
            "name": "wakeFlame.png",
            "uri": "wakeFlame.png"
        }
    ]
}