{
    "accessors": [
        {
            "bufferView": 0,
            "byteOffset": 0,
            "componentType": 5123,
            "count": 114,
            "type": "SCALAR",
            "max": [
                113
            ],
            "min": [
                0
            ]
        },
        {
            "bufferView": 1,
            "byteOffset": 0,
            "componentType": 5126,
            "count": 114,
            "type": "VEC3",
            "max": [
                1.910599946975708,
                2.0826001167297363,
                -19.553300857543945
            ],
            "min": [
                -1.910599946975708,
                1.3194999694824219,
                -21.809499740600586
            ],
            "name": "POSITION"
        },
        {
            "bufferView": 1,
            "byteOffset": 12,
            "componentType": 5126,
            "count": 114,
            "type": "VEC3",
            "max": [
                0.8219748139381409,
                0.8744845390319824,
                -0.19479404389858246
            ],
            "min": [
                -0.8219748139381409,
                0.5351836085319519,
                -0.6580243110656738
            ],
            "name": "NORMAL"
        },
        {
            "bufferView": 1,
            "byteOffset": 24,
            "componentType": 5126,
            "count": 114,
            "type": "VEC2",
            "max": [
                0.9279000163078308,
                0.9035000205039978
            ],
            "min": [
                0.25929999351501465,
                0.2102999985218048
            ],
            "name": "TEXCOORD_0"
        },
        {
            "bufferView": 0,
            "byteOffset": 228,
            "componentType": 5123,
            "count": 24330,
            "type": "SCALAR",
            "max": [
                20716
            ],
            "min": [
                0
            ]
        },
        {
            "bufferView": 2,
            "byteOffset": 0,
            "componentType": 5126,
            "count": 20717,
            "type": "VEC3",
            "max": [
                27.473400115966797,
                12.123000144958496,
                23.882200241088867
            ],
            "min": [
                -27.473400115966797,
                -3.2334001064300537,
                -23.882200241088867
            ],
            "name": "POSITION"
        },
        {
            "bufferView": 2,
            "byteOffset": 12,
            "componentType": 5126,
            "count": 20717,
            "type": "VEC3",
            "max": [
                1.0000044107437134,
                0.9999791979789734,
                1.0000044107437134
            ],
            "min": [
                -1.0000044107437134,
                -1.0000044107437134,
                -1.0000044107437134
            ],
            "name": "NORMAL"
        },
        {
            "bufferView": 2,
            "byteOffset": 24,
            "componentType": 5126,
            "count": 20717,
            "type": "VEC2",
            "max": [
                0.9940999746322632,
                0.9904000163078308
            ],
            "min": [
                0.006800000090152025,
                0.014800000004470348
            ],
            "name": "TEXCOORD_0"
        }
    ],
    "asset": {
        "generator": "Aspose.3D 22.12",
        "version": "2.0"
    },
    "buffers": [
        {
            "uri": "data:application/octet-stream;base64,",
            "byteLength": 831108
        }
    ],
    "bufferViews": [
        {
            "buffer": 0,
            "byteOffset": 0,
            "byteLength": 48888,
            "target": 34963
        },
        {
            "buffer": 0,
            "byteOffset": 48892,
            "byteLength": 3648,
            "byteStride": 32,
            "target": 34962
        },
        {
            "buffer": 0,
            "byteOffset": 52544,
            "byteLength": 778560,
            "byteStride": 32,
            "target": 34962
        }
    ],
    "images": [
        {
            "uri": "data:image/jpeg;base64,"
        }
    ],
    "materials": [
        {
            "name": "01___Default1",
            "pbrMetallicRoughness": {
                "baseColorFactor": [
                    1,
                    1,
                    1,
                    1
                ],
                "baseColorTexture": {
                    "index": 0,
                    "texCoord": 0
                },
                "metallicFactor": 0,
                "roughnessFactor": 0.953
            },
            "emissiveFactor": [
                0,
                0,
                0
            ],
            "alphaMode": "OPAQUE",
            "doubleSided": false
        },
        {
            "name": "01___Default1",
            "pbrMetallicRoughness": {
                "baseColorFactor": [
                    1,
                    1,
                    1,
                    1
                ],
                "baseColorTexture": {
                    "index": 0,
                    "texCoord": 0
                },
                "metallicFactor": 0,
                "roughnessFactor": 0.953
            },
            "emissiveFactor": [
                0,
                0,
                0
            ],
            "alphaMode": "OPAQUE",
            "doubleSided": false
        }
    ],
    "meshes": [
        {
            "primitives": [
                {
                    "attributes": {
                        "POSITION": 1,
                        "NORMAL": 2,
                        "TEXCOORD_0": 3
                    },
                    "indices": 0,
                    "material": 0,
                    "mode": 4
                }
            ]
        },
        {
            "primitives": [
                {
                    "attributes": {
                        "POSITION": 5,
                        "NORMAL": 6,
                        "TEXCOORD_0": 7
                    },
                    "indices": 4,
                    "material": 1,
                    "mode": 4
                }
            ]
        }
    ],
    "nodes": [
        {
            "mesh": 0,
            "name": "002",
            "rotation": [
                0.0,
                -1.0,
                0.0,
                6.123233995736766e-17
            ]
        },
        {
            "mesh": 1,
            "name": "1_unfold3d001",
            "rotation": [
                0.0,
                -1.0,
                0.0,
                6.123233995736766e-17
            ]
        }
    ],
    "samplers": [
        {
            "magFilter": 9729,
            "minFilter": 9986,
            "wrapS": 10497,
            "wrapT": 10497
        }
    ],
    "scene": 0,
    "scenes": [
        {
            "nodes": [
                0,
                1
            ]
        }
    ],
    "textures": [
        {
            "sampler": 0,
            "source": 0,
            "name": ""
        }
    ]
}