{
    "accessors": [
        {
            "name": "Mseh_0_positions",
            "bufferView": 0,
            "byteOffset": 0,
            "componentType": 5126,
            "count": 2208,
            "type": "VEC3",
            "min": [
                -0.868690371513367,
                -0.895379066467285,
                -4.296072483062744
            ],
            "max": [
                0.868688106536865,
                0.898210525512695,
                4.566315174102783
            ]
        },
        {
            "name": "Mseh_1_normals",
            "bufferView": 1,
            "byteOffset": 0,
            "componentType": 5126,
            "count": 2208,
            "type": "VEC3",
            "min": [
                -1.000000000000000,
                -1.000000000000000,
                -1.000000000000000
            ],
            "max": [
                1.000000000000000,
                1.000000000000000,
                0.999376714229584
            ]
        },
        {
            "name": "Mseh_2_texcoords",
            "bufferView": 2,
            "byteOffset": 0,
            "componentType": 5126,
            "count": 2208,
            "type": "VEC2",
            "min": [
                -0.342951655387878,
                0.000000000000000
            ],
            "max": [
                1.083333373069763,
                1.000000000000000
            ]
        },
        {
            "name": "Mseh_3_colour",
            "bufferView": 3,
            "byteOffset": 0,
            "componentType": 5126,
            "count": 2208,
            "type": "VEC4",
            "min": [
                0.501960813999176,
                0.000000000000000,
                0.000000000000000,
                0.247058823704720
            ],
            "max": [
                0.501960813999176,
                0.000000000000000,
                0.000000000000000,
                0.247058823704720
            ]
        },
        {
            "name": "Mseh_4_indices",
            "bufferView": 4,
            "byteOffset": 0,
            "componentType": 5125,
            "count": 2208,
            "type": "SCALAR",
            "min": [
                0
            ],
            "max": [
                2207
            ]
        },
        {
            "name": "Mseh_5_positions",
            "bufferView": 0,
            "byteOffset": 26496,
            "componentType": 5126,
            "count": 30,
            "type": "VEC3",
            "min": [
                -0.230414971709251,
                -0.265185028314590,
                4.566315174102783
            ],
            "max": [
                0.185696184635162,
                0.130560129880905,
                4.600105762481689
            ]
        },
        {
            "name": "Mseh_6_normals",
            "bufferView": 1,
            "byteOffset": 26496,
            "componentType": 5126,
            "count": 30,
            "type": "VEC3",
            "min": [
                -0.457902729511261,
                0.889002203941345,
                -0.435490846633911
            ],
            "max": [
                0.457901984453201,
                1.000000000000000,
                0.435483127832413
            ]
        },
        {
            "name": "Mseh_7_texcoords",
            "bufferView": 2,
            "byteOffset": 17664,
            "componentType": 5126,
            "count": 30,
            "type": "VEC2",
            "min": [
                0.489361464977264,
                0.000000000000000
            ],
            "max": [
                0.713773488998413,
                0.000000000000000
            ]
        },
        {
            "name": "Mseh_8_colour",
            "bufferView": 3,
            "byteOffset": 35328,
            "componentType": 5126,
            "count": 30,
            "type": "VEC4",
            "min": [
                0.501960813999176,
                0.000000000000000,
                0.000000000000000,
                0.247058823704720
            ],
            "max": [
                0.501960813999176,
                0.000000000000000,
                0.000000000000000,
                0.247058823704720
            ]
        },
        {
            "name": "Mseh_9_indices",
            "bufferView": 4,
            "byteOffset": 8832,
            "componentType": 5125,
            "count": 30,
            "type": "SCALAR",
            "min": [
                0
            ],
            "max": [
                29
            ]
        },
        {
            "name": "Mseh_10_positions",
            "bufferView": 0,
            "byteOffset": 26856,
            "componentType": 5126,
            "count": 12,
            "type": "VEC3",
            "min": [
                -0.403625756502151,
                -0.067312456667423,
                2.403156280517578
            ],
            "max": [
                0.359142124652863,
                0.144290298223495,
                3.284634113311768
            ]
        },
        {
            "name": "Mseh_11_normals",
            "bufferView": 1,
            "byteOffset": 26856,
            "componentType": 5126,
            "count": 12,
            "type": "VEC3",
            "min": [
                -0.951056540012360,
                -0.000000084393271,
                -0.309016942977905
            ],
            "max": [
                0.951056540012360,
                -0.000000007024158,
                -0.309016883373260
            ]
        },
        {
            "name": "Mseh_12_texcoords",
            "bufferView": 2,
            "byteOffset": 17904,
            "componentType": 5126,
            "count": 12,
            "type": "VEC2",
            "min": [
                0.000000000000000,
                -0.000000238418579
            ],
            "max": [
                1.000000000000000,
                1.000000119209290
            ]
        },
        {
            "name": "Mseh_13_colour",
            "bufferView": 3,
            "byteOffset": 35808,
            "componentType": 5126,
            "count": 12,
            "type": "VEC4",
            "min": [
                0.501960813999176,
                0.000000000000000,
                0.000000000000000,
                0.247058823704720
            ],
            "max": [
                0.501960813999176,
                0.000000000000000,
                0.000000000000000,
                0.247058823704720
            ]
        },
        {
            "name": "Mseh_14_indices",
            "bufferView": 4,
            "byteOffset": 8952,
            "componentType": 5125,
            "count": 12,
            "type": "SCALAR",
            "min": [
                0
            ],
            "max": [
                11
            ]
        },
        {
            "name": "Mseh_15_positions",
            "bufferView": 0,
            "byteOffset": 27000,
            "componentType": 5126,
            "count": 534,
            "type": "VEC3",
            "min": [
                -0.856011867523193,
                -0.886576533317566,
                -3.800210952758789
            ],
            "max": [
                0.853269934654236,
                0.886577010154724,
                1.852835655212402
            ]
        },
        {
            "name": "Mseh_16_normals",
            "bufferView": 1,
            "byteOffset": 27000,
            "componentType": 5126,
            "count": 534,
            "type": "VEC3",
            "min": [
                -1.000000000000000,
                -1.000000000000000,
                -1.000000000000000
            ],
            "max": [
                1.000000000000000,
                1.000000000000000,
                1.000000000000000
            ]
        },
        {
            "name": "Mseh_17_texcoords",
            "bufferView": 2,
            "byteOffset": 18000,
            "componentType": 5126,
            "count": 534,
            "type": "VEC2",
            "min": [
                -0.254820883274078,
                0.149277985095978
            ],
            "max": [
                1.750629425048828,
                0.910543560981750
            ]
        },
        {
            "name": "Mseh_18_colour",
            "bufferView": 3,
            "byteOffset": 36000,
            "componentType": 5126,
            "count": 534,
            "type": "VEC4",
            "min": [
                0.501960813999176,
                0.000000000000000,
                0.000000000000000,
                0.247058823704720
            ],
            "max": [
                0.501960813999176,
                0.000000000000000,
                0.000000000000000,
                0.247058823704720
            ]
        },
        {
            "name": "Mseh_19_indices",
            "bufferView": 4,
            "byteOffset": 9000,
            "componentType": 5125,
            "count": 534,
            "type": "SCALAR",
            "min": [
                0
            ],
            "max": [
                533
            ]
        }
    ],
    "asset": {
        "generator": "EarthView-CesiumModelTool",
        "version": "2.0"
    },
    "bufferViews": [
        {
            "name": "bufferView__positions",
            "buffer": 0,
            "byteLength": 33408,
            "byteOffset": 0,
            "byteStride": 12,
            "target": 34962
        },
        {
            "name": "bufferView__normals",
            "buffer": 0,
            "byteLength": 33408,
            "byteOffset": 33408,
            "byteStride": 12,
            "target": 34962
        },
        {
            "name": "bufferView__texcoords",
            "buffer": 0,
            "byteLength": 22272,
            "byteOffset": 66816,
            "byteStride": 8,
            "target": 34962
        },
        {
            "name": "bufferView__colour",
            "buffer": 0,
            "byteLength": 44544,
            "byteOffset": 89088,
            "byteStride": 16,
            "target": 34962
        },
        {
            "name": "bufferView__indices",
            "buffer": 0,
            "byteLength": 11136,
            "byteOffset": 133632,
            "target": 34963
        }
    ],
    "materials": [
        {
            "name": "YJ88_Material_eaf400e0-b33c-11e9-4447-54097e7563ce",
            "pbrMetallicRoughness": {
                "baseColorTexture": {
                    "index": 0
                },
                "baseColorFactor": [
                    1.000000,
                    1.000000,
                    1.000000,
                    1.000000
                ],
                "metallicFactor": 0,
                "roughnessFactor": 1
            },
            "emissiveFactor": [
                0.000000,
                0.000000,
                0.000000
            ],
            "alphaMode": "OPAQUE",
            "doubleSided": true
        },
        {
            "name": "YJ88_Material_eafd76c0-b33c-11e9-4447-54097e7563ce",
            "pbrMetallicRoughness": {
                "baseColorFactor": [
                    0.992157,
                    0.047059,
                    0.000000,
                    1.000000
                ],
                "metallicFactor": 0,
                "roughnessFactor": 1
            },
            "emissiveFactor": [
                0.000000,
                0.000000,
                0.000000
            ],
            "alphaMode": "OPAQUE",
            "doubleSided": true
        },
        {
            "name": "YJ88_Material_eafd76c1-b33c-11e9-4447-54097e7563ce",
            "pbrMetallicRoughness": {
                "baseColorTexture": {
                    "index": 1
                },
                "baseColorFactor": [
                    1.000000,
                    1.000000,
                    1.000000,
                    1.000000
                ],
                "metallicFactor": 0,
                "roughnessFactor": 1
            },
            "emissiveFactor": [
                0.000000,
                0.000000,
                0.000000
            ],
            "alphaMode": "BLEND",
            "doubleSided": true
        },
        {
            "name": "YJ88_Material_eb04a2b0-b33c-11e9-4447-54097e7563ce",
            "pbrMetallicRoughness": {
                "baseColorFactor": [
                    0.980392,
                    0.670588,
                    0.000000,
                    1.000000
                ],
                "metallicFactor": 0,
                "roughnessFactor": 1
            },
            "emissiveFactor": [
                0.000000,
                0.000000,
                0.000000
            ],
            "alphaMode": "OPAQUE",
            "doubleSided": true
        }
    ],
    "meshes": [
        {
            "name": "Mseh_4",
            "primitives": [
                {
                    "attributes": {
                        "POSITION": 0,
                        "NORMAL": 1,
                        "TEXCOORD_0": 2
                    },
                    "indices": 4,
                    "material": 0,
                    "mode": 4
                }
            ]
        },
        {
            "name": "Mseh_9",
            "primitives": [
                {
                    "attributes": {
                        "POSITION": 5,
                        "NORMAL": 6,
                        "TEXCOORD_0": 7,
                        "COLOR_0": 8
                    },
                    "indices": 9,
                    "material": 1,
                    "mode": 4
                }
            ]
        },
        {
            "name": "Mseh_14",
            "primitives": [
                {
                    "attributes": {
                        "POSITION": 10,
                        "NORMAL": 11,
                        "TEXCOORD_0": 12
                    },
                    "indices": 14,
                    "material": 2,
                    "mode": 4
                }
            ]
        },
        {
            "name": "Mseh_19",
            "primitives": [
                {
                    "attributes": {
                        "POSITION": 15,
                        "NORMAL": 16,
                        "TEXCOORD_0": 17,
                        "COLOR_0": 18
                    },
                    "indices": 19,
                    "material": 3,
                    "mode": 4
                }
            ]
        }
    ],
    "nodes": [
        {
            "name": "Cylinder001_skeleton",
            "rotation": [
                0.707106840791191,
                0.000000000000000,
                0.000000000000000,
                0.707106721581899
            ]
        },
        {
            "children": [
                2,
                0
            ]
        },
        {
            "name": "Cylinder001",
            "children": [
                3,
                4,
                5,
                6
            ]
        },
        {
            "name": "mesh_0",
            "mesh": 0
        },
        {
            "name": "mesh_1",
            "mesh": 1
        },
        {
            "name": "mesh_2",
            "mesh": 2
        },
        {
            "name": "mesh_3",
            "mesh": 3
        }
    ],
    "samplers": [
        {
            "magFilter": 9729,
            "minFilter": 9729,
            "wrapS": 10497,
            "wrapT": 10497
        }
    ],
    "scene": 0,
    "buffers": [
        {
            "name": "MisYJ88.mesh",
            "byteLength": 144768,
            "uri": "data:application/gltf-buffer;base64,"
        }
    ],
    "animations": [
        {
            "name": "Anim1",
            "channels": [],
            "samplers": []
        }
    ],
    "scenes": [
        {
            "nodes": [
                1
            ]
        }
    ],
    "textures": [
        {
            "name": "YJ88_Material_eaf400e0-b33c-11e9-4447-54097e7563ce",
            "sampler": 0,
            "source": 0
        },
        {
            "name": "YJ88_Material_eafd76c1-b33c-11e9-4447-54097e7563ce",
            "sampler": 0,
            "source": 1
        }
    ],
    "images": [
        {
            "name": "YJ001.jpg",
            "uri": "data:image/ktx;base64,"
        },
        {
            "name": "YJ002.png",
            "uri": "data:image/ktx;base64,"
        }
    ]
}