{
	"asset":{
		"version":"2.0",
		"generator":"Created using the official Cinema 4D glTF Exporter 1.000x284978"
	},
	"images":[{
		"uri":"data:image/jpeg;base64,"
	}],
	"scenes":[{
		"nodes":[0]
	}],
	"nodes":[{
		"name":"MI171",
		"translation":[-1.0303592681884766,
		12.901273727416993,
		15.847179412841797],
		"rotation":[0.7071067690849304,
		0.0,
		0.0,
		-0.7071067690849304],
		"scale":[1.0,
		1.0,
		1.0],
		"children":[1,
		2,
		3]
	},
	{
		"name":"weijiang",
		"translation":[0.13516555726528169,
		-6.673669815063477,
		-16.04572296142578],
		"rotation":[-0.022786060348153116,
		0.0,
		0.0,
		-0.9997403621673584],
		"scale":[81.42868041992188,
		81.42868041992188,
		81.42868041992188],
		"mesh":0
	},
	{
		"name":"jishen",
		"translation":[0.13516557216644288,
		-7.6784210205078129,
		-13.154006958007813],
		"rotation":[0.0,
		0.0,
		0.0,
		-1.0],
		"scale":[81.42868041992188,
		81.42868041992188,
		81.42868041992188],
		"mesh":1
	},
	{
		"name":"luoxuanjiang",
		"translation":[0.03023945540189743,
		-7.674648284912109,
		-13.154004096984864],
		"rotation":[0.0,
		0.0,
		0.022786060348153116,
		0.9997403621673584],
		"scale":[81.42868041992188,
		81.42868041992188,
		81.42868041992188],
		"mesh":2
	}],
	"materials":[{
		"pbrMetallicRoughness":{
			"baseColorTexture":{
				"index":0
			},
			"baseColorFactor":[0.5879999995231628,
			0.5879999995231628,
			0.5879999995231628,
			1.0],
			"metallicFactor":0.5,
			"roughnessFactor":1.0
		},
		"emissiveFactor":[0.0,
		0.0,
		0.0],
		"name":"Material #25",
		"alphaMode":"OPAQUE",
		"doubleSided":false
	}],
	"meshes":[{
		"name":"weijiang",
		"primitives":[{
			"attributes":{
				"POSITION":1,
				"NORMAL":2,
				"TEXCOORD_0":3
			},
			"indices":0,
			"material":0
		}]
	},
	{
		"name":"jishen",
		"primitives":[{
			"attributes":{
				"POSITION":9,
				"NORMAL":10,
				"TEXCOORD_0":11
			},
			"indices":8,
			"material":0
		}]
	},
	{
		"name":"luoxuanjiang",
		"primitives":[{
			"attributes":{
				"POSITION":13,
				"NORMAL":14,
				"TEXCOORD_0":15
			},
			"indices":12,
			"material":0
		}]
	}],
	"accessors":[{
		"bufferView":0,
		"byteOffset":0,
		"type":"SCALAR",
		"componentType":5123,
		"count":2265,
		"min":[0],
		"max":[1848]
	},
	{
		"bufferView":1,
		"byteOffset":0,
		"type":"VEC3",
		"componentType":5126,
		"count":1849,
		"min":[0.031163258478045465,
		0.6735343337059021,
		0.12646150588989259],
		"max":[0.04641849547624588,
		0.8969095945358276,
		0.3230219781398773]
	},
	{
		"bufferView":1,
		"byteOffset":12,
		"type":"VEC3",
		"componentType":5126,
		"count":1849,
		"min":[-1.0,
		-0.9999353289604187,
		-0.9989011287689209],
		"max":[1.0,
		0.9989458918571472,
		0.998945415019989]
	},
	{
		"bufferView":1,
		"byteOffset":24,
		"type":"VEC2",
		"componentType":5126,
		"count":1849,
		"min":[0.004699999466538429,
		-0.9988999962806702],
		"max":[0.9988999366760254,
		-0.001000046730041504]
	},
	{
		"bufferView":2,
		"byteOffset":0,
		"type":"SCALAR",
		"componentType":5126,
		"count":101,
		"min":[0.0],
		"max":[3.3333332538604738]
	},
	{
		"bufferView":2,
		"byteOffset":404,
		"type":"VEC3",
		"componentType":5126,
		"count":101,
		"min":[0.13516555726528169,
		-10.899460792541504,
		-59.719871520996097],
		"max":[0.13516555726528169,
		123.40725708007813,
		74.59455871582031]
	},
	{
		"bufferView":3,
		"byteOffset":0,
		"type":"SCALAR",
		"componentType":5126,
		"count":101,
		"min":[0.0],
		"max":[3.3333332538604738]
	},
	{
		"bufferView":3,
		"byteOffset":404,
		"type":"VEC4",
		"componentType":5126,
		"count":101,
		"min":[-0.6884185075759888,
		-8.65855276656822e-17,
		0.0,
		-1.0],
		"max":[1.0,
		0.0,
		8.65855276656822e-17,
		0.6962376832962036]
	},
	{
		"bufferView":4,
		"byteOffset":0,
		"type":"SCALAR",
		"componentType":5123,
		"count":51663,
		"min":[0],
		"max":[25693]
	},
	{
		"bufferView":5,
		"byteOffset":0,
		"type":"VEC3",
		"componentType":5126,
		"count":25694,
		"min":[-0.16006062924861909,
		-0.42671999335289,
		0.000058420002460479739],
		"max":[0.1525803506374359,
		0.7935823798179627,
		0.26132282614707949]
	},
	{
		"bufferView":5,
		"byteOffset":12,
		"type":"VEC3",
		"componentType":5126,
		"count":25694,
		"min":[-1.0,
		-1.0,
		-0.9999932050704956],
		"max":[1.0,
		0.9999406337738037,
		0.9999504685401917]
	},
	{
		"bufferView":5,
		"byteOffset":24,
		"type":"VEC2",
		"componentType":5126,
		"count":25694,
		"min":[0.0,
		-0.9990000128746033],
		"max":[0.9990000128746033,
		0.0]
	},
	{
		"bufferView":6,
		"byteOffset":0,
		"type":"SCALAR",
		"componentType":5123,
		"count":6996,
		"min":[0],
		"max":[5885]
	},
	{
		"bufferView":7,
		"byteOffset":0,
		"type":"VEC3",
		"componentType":5126,
		"count":5886,
		"min":[-0.6489192247390747,
		-0.7083171010017395,
		0.2399665117263794],
		"max":[0.6455994248390198,
		0.5260263681411743,
		0.3130219876766205]
	},
	{
		"bufferView":7,
		"byteOffset":12,
		"type":"VEC3",
		"componentType":5126,
		"count":5886,
		"min":[-1.0,
		-1.0,
		-0.9999983310699463],
		"max":[1.0,
		0.9999988675117493,
		0.9999983310699463]
	},
	{
		"bufferView":7,
		"byteOffset":24,
		"type":"VEC2",
		"componentType":5126,
		"count":5886,
		"min":[0.0009999999310821295,
		-0.9990000128746033],
		"max":[0.9989999532699585,
		-0.001000046730041504]
	},
	{
		"bufferView":8,
		"byteOffset":0,
		"type":"SCALAR",
		"componentType":5126,
		"count":101,
		"min":[0.0],
		"max":[3.3333332538604738]
	},
	{
		"bufferView":8,
		"byteOffset":404,
		"type":"VEC3",
		"componentType":5126,
		"count":101,
		"min":[-2.302987813949585,
		-12.280807495117188,
		-13.154004096984864],
		"max":[2.303858995437622,
		-7.674498081207275,
		-13.154004096984864]
	},
	{
		"bufferView":9,
		"byteOffset":0,
		"type":"SCALAR",
		"componentType":5126,
		"count":101,
		"min":[0.0],
		"max":[3.3333332538604738]
	},
	{
		"bufferView":9,
		"byteOffset":404,
		"type":"VEC4",
		"componentType":5126,
		"count":101,
		"min":[-4.428521182305977e-16,
		-6.861462916429569e-16,
		-0.826054036617279,
		-1.0],
		"max":[2.000539990758862e-15,
		1.9404144157891998e-15,
		1.0,
		0.9999995827674866]
	}],
	"bufferViews":[{
		"buffer":0,
		"byteOffset":0,
		"byteLength":4530,
		"target":34963
	},
	{
		"buffer":0,
		"byteOffset":4532,
		"byteLength":59168,
		"target":34962,
		"byteStride":32
	},
	{
		"buffer":1,
		"byteOffset":0,
		"byteLength":1616
	},
	{
		"buffer":1,
		"byteOffset":1616,
		"byteLength":2020
	},
	{
		"buffer":2,
		"byteOffset":0,
		"byteLength":103326,
		"target":34963
	},
	{
		"buffer":2,
		"byteOffset":103328,
		"byteLength":822208,
		"target":34962,
		"byteStride":32
	},
	{
		"buffer":3,
		"byteOffset":0,
		"byteLength":13992,
		"target":34963
	},
	{
		"buffer":3,
		"byteOffset":13992,
		"byteLength":188352,
		"target":34962,
		"byteStride":32
	},
	{
		"buffer":4,
		"byteOffset":0,
		"byteLength":1616
	},
	{
		"buffer":4,
		"byteOffset":1616,
		"byteLength":2020
	}],
	"animations":[{
		"samplers":[{
			"input":4,
			"interpolation":"LINEAR",
			"output":5
		},
		{
			"input":6,
			"interpolation":"LINEAR",
			"output":7
		},
		{
			"input":16,
			"interpolation":"LINEAR",
			"output":17
		},
		{
			"input":18,
			"interpolation":"LINEAR",
			"output":19
		}],
		"channels":[{
			"sampler":0,
			"target":{
				"node":1,
				"path":"translation"
			}
		},
		{
			"sampler":1,
			"target":{
				"node":1,
				"path":"rotation"
			}
		},
		{
			"sampler":2,
			"target":{
				"node":3,
				"path":"translation"
			}
		},
		{
			"sampler":3,
			"target":{
				"node":3,
				"path":"rotation"
			}
		}]
	}],
	"buffers":[{
		"uri":"data:application/octet-stream;base64,",
		"byteLength":63700
	},
	{
		"uri":"data:application/octet-stream;base64,",
		"byteLength":3636
	},
	{
		"uri":"data:application/octet-stream;base64,",
		"byteLength":925536
	},
	{
		"uri":"data:application/octet-stream;base64,",
		"byteLength":202344
	},
	{
		"uri":"data:application/octet-stream;base64,",
		"byteLength":3636
	}],
	"samplers":[{
		"magFilter":9729,
		"minFilter":9729,
		"wrapS":10497,
		"wrapT":10497
	}],
	"textures":[{
		"sampler":0,
		"source":0
	}]
}