{"accessors":[{"name":"Mseh_0_positions","bufferView":0,"byteOffset":0,"componentType":5126,"count":761,"type":"VEC3","min":[-104.467025756835938,-5.364522933959961,-38.055847167968750],"max":[104.467033386230469,137.201477050781250,38.055847167968750]},{"name":"Mseh_1_normals","bufferView":1,"byteOffset":0,"componentType":5126,"count":761,"type":"VEC3","min":[-1.000000000000000,-0.998974502086639,-1.000000000000000],"max":[1.000000000000000,0.998974502086639,1.000000000000000]},{"name":"Mseh_2_texcoords","bufferView":2,"byteOffset":0,"componentType":5126,"count":761,"type":"VEC2","min":[-207.934051513671875,-148.982559204101563],"max":[208.936279296875000,17.811574935913086]},{"name":"Mseh_3_colour","bufferView":3,"byteOffset":0,"componentType":5126,"count":761,"type":"VEC4","min":[1.000000000000000,1.000000000000000,1.000000000000000,1.000000000000000],"max":[1.000000000000000,1.000000000000000,1.000000000000000,1.000000000000000]},{"name":"Mseh_4_indices","bufferView":4,"byteOffset":0,"componentType":5125,"count":1530,"type":"SCALAR","min":[0],"max":[760]},{"name":"Mseh_5_positions","bufferView":0,"byteOffset":9132,"componentType":5126,"count":188,"type":"VEC3","min":[-6.390001773834229,-6.588674545288086,-6.488577842712402],"max":[6.390002727508545,6.588674545288086,6.488577842712402]},{"name":"Mseh_6_normals","bufferView":1,"byteOffset":9132,"componentType":5126,"count":188,"type":"VEC3","min":[-0.970395982265472,-1.000000000000000,-0.985365867614746],"max":[0.970396101474762,1.000000000000000,0.985365867614746]},{"name":"Mseh_7_texcoords","bufferView":2,"byteOffset":6088,"componentType":5126,"count":188,"type":"VEC2","min":[0.000000000000000,-19.698932647705078],"max":[41.397857666015625,0.999998748302460]},{"name":"Mseh_8_colour","bufferView":3,"byteOffset":12176,"componentType":5126,"count":188,"type":"VEC4","min":[1.000000000000000,1.000000000000000,1.000000000000000,1.000000000000000],"max":[1.000000000000000,1.000000000000000,1.000000000000000,1.000000000000000]},{"name":"Mseh_9_indices","bufferView":4,"byteOffset":6120,"componentType":5125,"count":864,"type":"SCALAR","min":[0],"max":[187]},{"name":"Mseh_10_positions","bufferView":0,"byteOffset":11388,"componentType":5126,"count":870,"type":"VEC3","min":[-25.015748977661133,-32.884471893310547,-24.878709793090820],"max":[25.015748977661133,7.714388847351074,24.878711700439453]},{"name":"Mseh_11_normals","bufferView":1,"byteOffset":11388,"componentType":5126,"count":870,"type":"VEC3","min":[-1.000000000000000,-1.000000000000000,-1.000000000000000],"max":[1.000000000000000,1.000000000000000,1.000000000000000]},{"name":"Mseh_12_texcoords","bufferView":2,"byteOffset":7592,"componentType":5126,"count":870,"type":"VEC2","min":[-41.306503295898438,-6.714388847351074],"max":[255.128112792968750,1.000000000000000]},{"name":"Mseh_13_colour","bufferView":3,"byteOffset":15184,"componentType":5126,"count":870,"type":"VEC4","min":[1.000000000000000,1.000000000000000,1.000000000000000,1.000000000000000],"max":[1.000000000000000,1.000000000000000,1.000000000000000,1.000000000000000]},{"name":"Mseh_14_indices","bufferView":4,"byteOffset":9576,"componentType":5125,"count":1788,"type":"SCALAR","min":[0],"max":[869]},{"name":"Mseh_15_positions","bufferView":0,"byteOffset":21828,"componentType":5126,"count":140,"type":"VEC3","min":[-25.228429794311523,0.000000000000000,-35.888332366943359],"max":[25.228429794311523,4.281449317932129,35.888332366943359]},{"name":"Mseh_16_normals","bufferView":1,"byteOffset":21828,"componentType":5126,"count":140,"type":"VEC3","min":[-1.000000000000000,-1.000000000000000,-1.000000000000000],"max":[1.000000000000000,1.000000000000000,1.000000000000000]},{"name":"Mseh_17_texcoords","bufferView":2,"byteOffset":14552,"componentType":5126,"count":140,"type":"VEC2","min":[-49.456859588623047,-70.776664733886719],"max":[72.700180053710938,1.000016450881958]},{"name":"Mseh_18_colour","bufferView":3,"byteOffset":29104,"componentType":5126,"count":140,"type":"VEC4","min":[1.000000000000000,1.000000000000000,1.000000000000000,1.000000000000000],"max":[1.000000000000000,1.000000000000000,1.000000000000000,1.000000000000000]},{"name":"Mseh_19_indices","bufferView":4,"byteOffset":16728,"componentType":5125,"count":318,"type":"SCALAR","min":[0],"max":[139]},{"name":"Mseh_20_positions","bufferView":0,"byteOffset":23508,"componentType":5126,"count":80,"type":"VEC3","min":[-10.552762985229492,0.000000000000000,-13.505023956298828],"max":[10.552762985229492,100.000000000000000,13.505023956298828]},{"name":"Mseh_21_normals","bufferView":1,"byteOffset":23508,"componentType":5126,"count":80,"type":"VEC3","min":[-1.000000000000000,-1.000000000000000,-1.000000000000000],"max":[1.000000000000000,1.000000000000000,1.000000000000000]},{"name":"Mseh_22_texcoords","bufferView":2,"byteOffset":15672,"componentType":5126,"count":80,"type":"VEC2","min":[-20.105525970458984,-99.000007629394531],"max":[27.010047912597656,1.000000000000000]},{"name":"Mseh_23_colour","bufferView":3,"byteOffset":31344,"componentType":5126,"count":80,"type":"VEC4","min":[1.000000000000000,1.000000000000000,1.000000000000000,1.000000000000000],"max":[1.000000000000000,1.000000000000000,1.000000000000000,1.000000000000000]},{"name":"Mseh_24_indices","bufferView":4,"byteOffset":18000,"componentType":5125,"count":204,"type":"SCALAR","min":[0],"max":[79]},{"name":"Mseh_25_positions","bufferView":0,"byteOffset":24468,"componentType":5126,"count":650,"type":"VEC3","min":[-18.674011230468750,-7.435176849365234,-18.390312194824219],"max":[18.674011230468750,59.035163879394531,18.390312194824219]},{"name":"Mseh_26_normals","bufferView":1,"byteOffset":24468,"componentType":5126,"count":650,"type":"VEC3","min":[-1.000000000000000,-1.000000000000000,-1.000000000000000],"max":[1.000000000000000,1.000000000000000,1.000000000000000]},{"name":"Mseh_27_texcoords","bufferView":2,"byteOffset":16312,"componentType":5126,"count":650,"type":"VEC2","min":[-35.851547241210938,-50.599994659423828],"max":[205.331481933593750,1.000000000000000]},{"name":"Mseh_28_colour","bufferView":3,"byteOffset":32624,"componentType":5126,"count":650,"type":"VEC4","min":[1.000000000000000,1.000000000000000,1.000000000000000,1.000000000000000],"max":[1.000000000000000,1.000000000000000,1.000000000000000,1.000000000000000]},{"name":"Mseh_29_indices","bufferView":4,"byteOffset":18816,"componentType":5125,"count":1068,"type":"SCALAR","min":[0],"max":[649]},{"name":"Mseh_30_positions","bufferView":0,"byteOffset":32268,"componentType":5126,"count":160,"type":"VEC3","min":[-9.186989784240723,-9.265874862670898,-9.226347923278809],"max":[9.186988830566406,9.265874862670898,9.069252014160156]},{"name":"Mseh_31_normals","bufferView":1,"byteOffset":32268,"componentType":5126,"count":160,"type":"VEC3","min":[-0.991661369800568,-1.000000000000000,-0.995909750461578],"max":[0.991661250591278,1.000000000000000,0.978952586650848]},{"name":"Mseh_32_texcoords","bufferView":2,"byteOffset":21512,"componentType":5126,"count":160,"type":"VEC2","min":[0.000000000000000,-28.109605789184570],"max":[58.219219207763672,-0.712331414222717]},{"name":"Mseh_33_colour","bufferView":3,"byteOffset":43024,"componentType":5126,"count":160,"type":"VEC4","min":[1.000000000000000,1.000000000000000,1.000000000000000,1.000000000000000],"max":[1.000000000000000,1.000000000000000,1.000000000000000,1.000000000000000]},{"name":"Mseh_34_indices","bufferView":4,"byteOffset":23088,"componentType":5125,"count":714,"type":"SCALAR","min":[0],"max":[159]},{"name":"Mseh_35_positions","bufferView":0,"byteOffset":34188,"componentType":5126,"count":652,"type":"VEC3","min":[-25.861564636230469,-60.196643829345703,-40.810096740722656],"max":[45.280662536621094,25.978382110595703,39.717021942138672]},{"name":"Mseh_36_normals","bufferView":1,"byteOffset":34188,"componentType":5126,"count":652,"type":"VEC3","min":[-0.999900281429291,-0.999969184398651,-0.997813940048218],"max":[0.999856233596802,0.999991834163666,0.997723460197449]},{"name":"Mseh_37_texcoords","bufferView":2,"byteOffset":22792,"componentType":5126,"count":652,"type":"VEC2","min":[0.000000000000000,0.000000000000000],"max":[0.000000000000000,0.000000000000000]},{"name":"Mseh_38_colour","bufferView":3,"byteOffset":45584,"componentType":5126,"count":652,"type":"VEC4","min":[1.000000000000000,1.000000000000000,1.000000000000000,1.000000000000000],"max":[1.000000000000000,1.000000000000000,1.000000000000000,1.000000000000000]},{"name":"Mseh_39_indices","bufferView":4,"byteOffset":25944,"componentType":5125,"count":3732,"type":"SCALAR","min":[0],"max":[651]}],"asset":{"generator":"EarthView-CesiumModelTool","version":"2.0"},"bufferViews":[{"name":"bufferView__positions","buffer":0,"byteLength":42012,"byteOffset":0,"byteStride":12,"target":34962},{"name":"bufferView__normals","buffer":0,"byteLength":42012,"byteOffset":42012,"byteStride":12,"target":34962},{"name":"bufferView__texcoords","buffer":0,"byteLength":28008,"byteOffset":84024,"byteStride":8,"target":34962},{"name":"bufferView__colour","buffer":0,"byteLength":56016,"byteOffset":112032,"byteStride":16,"target":34962},{"name":"bufferView__indices","buffer":0,"byteLength":40872,"byteOffset":168048,"target":34963}],"materials":[{"name":"7218b5b0-5682-11e9-6549-5725675e6477defaultLambert","pbrMetallicRoughness":{"baseColorFactor":[1.000000,1.000000,1.000000,1.000000],"metallicFactor":0,"roughnessFactor":1},"emissiveFactor":[0.000000,0.000000,0.000000],"alphaMode":"OPAQUE","doubleSided":true}],"meshes":[{"name":"Mseh_4","primitives":[{"attributes":{"POSITION":0,"NORMAL":1,"TEXCOORD_0":2,"COLOR_0":3},"indices":4,"material":0,"mode":4}]},{"name":"Mseh_9","primitives":[{"attributes":{"POSITION":5,"NORMAL":6,"TEXCOORD_0":7,"COLOR_0":8},"indices":9,"material":0,"mode":4}]},{"name":"Mseh_14","primitives":[{"attributes":{"POSITION":10,"NORMAL":11,"TEXCOORD_0":12,"COLOR_0":13},"indices":14,"material":0,"mode":4}]},{"name":"Mseh_19","primitives":[{"attributes":{"POSITION":15,"NORMAL":16,"TEXCOORD_0":17,"COLOR_0":18},"indices":19,"material":0,"mode":4}]},{"name":"Mseh_24","primitives":[{"attributes":{"POSITION":20,"NORMAL":21,"TEXCOORD_0":22,"COLOR_0":23},"indices":24,"material":0,"mode":4}]},{"name":"Mseh_29","primitives":[{"attributes":{"POSITION":25,"NORMAL":26,"TEXCOORD_0":27,"COLOR_0":28},"indices":29,"material":0,"mode":4}]},{"name":"Mseh_34","primitives":[{"attributes":{"POSITION":30,"NORMAL":31,"TEXCOORD_0":32,"COLOR_0":33},"indices":34,"material":0,"mode":4}]},{"name":"Mseh_39","primitives":[{"attributes":{"POSITION":35,"NORMAL":36,"TEXCOORD_0":37,"COLOR_0":38},"indices":39,"material":0,"mode":4}]}],"nodes":[{"name":"Group001","children":[1],"scale":[0.025399999693036,0.025399999693036,0.025399999693036]},{"name":"Group001","children":[2,4,6,8,10,12,14,16],"translation":[60.394992828369141,16.144447326660156,21.973295211791992]},{"name":"Box001","children":[3],"translation":[4.959632873535156,27.449523925781250,-51.593811035156250],"rotation":[0.704839693434964,-0.056577965350068,-0.056577958605449,0.704839609411526]},{"name":"mesh_0","mesh":0,"translation":[0.000018975841087,0.000001324101827,-0.000001249386393],"rotation":[-0.000000000000000,0.000000000038011,-0.000000000000000,1.000000000000000]},{"name":"Sphere001","children":[5],"translation":[135.824432373046875,5.562862396240234,14.991640090942383],"rotation":[0.000000000000000,0.000000000000000,-0.080013321160375,0.996793794341080]},{"name":"mesh_1","mesh":1,"translation":[0.000006260887119,0.000001539818726,-0.000002091396972],"rotation":[0.000000000000000,0.000000000000000,0.000000000038011,1.000000000000000]},{"name":"Cylinder001","children":[7],"translation":[114.851135253906250,9.692975997924805,14.991645812988281],"rotation":[0.458390219050003,-0.538403584751545,0.458390293731258,0.538403497034471]},{"name":"mesh_2","mesh":2,"translation":[-0.000003120163100,0.000003348053383,0.000002156773967],"rotation":[-0.000000000541136,-0.000000000000000,0.000000000000000,1.000000000000000]},{"name":"Box002","children":[9],"translation":[-146.713958740234375,-45.793659210205078,14.991640090942383],"rotation":[-0.499999985098835,0.500000044703482,-0.500000036756858,-0.499999933440818]},{"name":"mesh_3","mesh":3,"translation":[-0.000002091398180,-0.000006405991044,-0.000002675418777],"rotation":[-0.000000000000001,0.000000000000000,0.000000000000000,1.000000000000000]},{"name":"Box004","children":[11],"translation":[-48.407135009765625,-49.252441406250000,15.290353775024414],"rotation":[-0.499999985098835,0.500000044703482,-0.500000036756858,-0.499999933440818]},{"name":"mesh_4","mesh":4,"translation":[-0.000000289322870,-0.000002134826014,-0.000002385813879],"rotation":[-0.000000000000001,0.000000000000000,0.000000000000000,1.000000000000000]},{"name":"Cylinder002","children":[13],"translation":[-32.466758728027344,-73.920837402343750,15.693124771118164]},{"name":"mesh_5","mesh":5,"translation":[0.000001261155468,0.000002095200891,-0.000001106717320]},{"name":"Sphere002","children":[15],"translation":[-32.618217468261719,-10.446949958801270,15.636117935180664],"rotation":[0.707106838787706,0.000000000000000,0.000000000000000,0.707106723585385]},{"name":"mesh_6","mesh":6,"translation":[0.000000842561867,0.000001160386169,-0.000000403017027],"rotation":[0.000000000000000,0.000000000000000,0.000000000000000,1.000000000000000]},{"name":"Line001","children":[17],"translation":[-124.428680419921875,-19.703495025634766,-21.973295211791992],"rotation":[0.707106838787706,0.000000000000000,0.000000000000000,0.707106723585385]},{"name":"mesh_7","mesh":7,"translation":[0.000003926928883,0.000000000000135,0.000000829605371],"rotation":[0.000000000000000,0.000000000000000,0.000000000000000,1.000000000000000]}],"samplers":[{"magFilter":9729,"minFilter":9729,"wrapS":10497,"wrapT":10497}],"scene":0,"buffers":[{"name":"singlecamera.mesh","byteLength":208920,"uri":"singlecamera.bin"}],"scenes":[{"nodes":[0]}]}