{"asset":{"version":"2.0","generator":"babylon.js glTF exporter for 3ds max 2015 v1.3.33"},"scene":0,"scenes":[{"nodes":[0,14],"extensions":{}}],"nodes":[{"children":[1,2,3,4,5,6,7,8,9,10,11,12,13],"translation":[-1.76253891,66.500885,-15.3368759],"rotation":[0.0,0.0,0.0,1.0],"scale":[1.0,1.0,1.0],"name":"红旗17"},{"mesh":0,"translation":[0.321178317,-44.3622742,-0.16336441],"rotation":[0.0,0.70710665,0.0,0.7071069],"scale":[0.02588153,0.0258815363,0.02588153],"name":"hq1710"},{"mesh":1,"translation":[0.321178317,-44.3622742,-0.16336441],"rotation":[0.0,0.70710665,0.0,0.7071069],"scale":[0.02588153,0.0258815363,0.02588153],"name":"hq1711"},{"mesh":2,"translation":[0.321178317,-44.3622742,-0.16336441],"rotation":[0.0,0.70710665,0.0,0.7071069],"scale":[0.02588153,0.0258815363,0.02588153],"name":"hq1712"},{"mesh":3,"translation":[0.321178317,-44.3622742,-0.16336441],"rotation":[0.0,0.70710665,0.0,0.7071069],"scale":[0.02588153,0.0258815363,0.02588153],"name":"hq1705"},{"mesh":4,"translation":[0.321178317,-44.3622742,-0.16336441],"rotation":[0.0,0.70710665,0.0,0.7071069],"scale":[0.02588153,0.0258815363,0.02588153],"name":"hq1704"},{"mesh":5,"translation":[0.321178317,-44.3622742,-0.16336441],"rotation":[0.0,0.70710665,0.0,0.7071069],"scale":[0.02588153,0.0258815363,0.02588153],"name":"hq1706"},{"mesh":6,"translation":[0.321178317,-44.3622742,-0.16336441],"rotation":[0.0,0.70710665,0.0,0.7071069],"scale":[0.02588153,0.0258815363,0.02588153],"name":"hq1707"},{"mesh":7,"translation":[0.321178317,-44.3622742,-0.16336441],"rotation":[0.0,0.70710665,0.0,0.7071069],"scale":[0.02588153,0.0258815363,0.02588153],"name":"hq1709"},{"mesh":8,"translation":[0.321178317,-44.3622742,-0.16336441],"rotation":[0.0,0.70710665,0.0,0.7071069],"scale":[0.02588153,0.0258815363,0.02588153],"name":"hq1708"},{"mesh":9,"translation":[0.321178317,-44.3622742,-0.16336441],"rotation":[0.0,0.70710665,0.0,0.7071069],"scale":[0.02588153,0.0258815363,0.02588153],"name":"hq1701"},{"mesh":10,"translation":[0.321178317,-44.3622742,-0.16336441],"rotation":[0.0,0.70710665,0.0,0.7071069],"scale":[0.02588153,0.0258815363,0.02588153],"name":"hq1703"},{"mesh":11,"translation":[0.321178317,-44.3622742,-0.16336441],"rotation":[0.0,0.70710665,0.0,0.7071069],"scale":[0.02588153,0.0258815363,0.02588153],"name":"hq1702"},{"mesh":12,"translation":[0.321178317,-44.3622742,-0.16336441],"rotation":[0.0,0.70710665,0.0,0.7071069],"scale":[0.02588153,0.0258815363,0.02588153],"name":"hq1700"},{"translation":[0.0,0.0,0.0],"rotation":[0.0,0.0,0.0,1.0],"scale":[1.0,1.0,1.0],"name":"Default light"}],"meshes":[{"primitives":[{"attributes":{"POSITION":1,"NORMAL":2,"TEXCOORD_0":3},"indices":0,"mode":4,"material":0},{"attributes":{"POSITION":5,"NORMAL":6,"TEXCOORD_0":7},"indices":4,"mode":4,"material":1}],"name":"hq1710"},{"primitives":[{"attributes":{"POSITION":9,"NORMAL":10,"TEXCOORD_0":11},"indices":8,"mode":4,"material":0},{"attributes":{"POSITION":13,"NORMAL":14,"TEXCOORD_0":15},"indices":12,"mode":4,"material":1}],"name":"hq1711"},{"primitives":[{"attributes":{"POSITION":17,"NORMAL":18,"TEXCOORD_0":19},"indices":16,"mode":4,"material":2},{"attributes":{"POSITION":21,"NORMAL":22,"TEXCOORD_0":23},"indices":20,"mode":4,"material":3}],"name":"hq1712"},{"primitives":[{"attributes":{"POSITION":25,"NORMAL":26,"TEXCOORD_0":27},"indices":24,"mode":4,"material":0},{"attributes":{"POSITION":29,"NORMAL":30,"TEXCOORD_0":31},"indices":28,"mode":4,"material":1}],"name":"hq1705"},{"primitives":[{"attributes":{"POSITION":33,"NORMAL":34,"TEXCOORD_0":35},"indices":32,"mode":4,"material":0},{"attributes":{"POSITION":37,"NORMAL":38,"TEXCOORD_0":39},"indices":36,"mode":4,"material":1}],"name":"hq1704"},{"primitives":[{"attributes":{"POSITION":41,"NORMAL":42,"TEXCOORD_0":43},"indices":40,"mode":4,"material":0},{"attributes":{"POSITION":45,"NORMAL":46,"TEXCOORD_0":47},"indices":44,"mode":4,"material":1}],"name":"hq1706"},{"primitives":[{"attributes":{"POSITION":49,"NORMAL":50,"TEXCOORD_0":51},"indices":48,"mode":4,"material":0},{"attributes":{"POSITION":53,"NORMAL":54,"TEXCOORD_0":55},"indices":52,"mode":4,"material":1}],"name":"hq1707"},{"primitives":[{"attributes":{"POSITION":57,"NORMAL":58,"TEXCOORD_0":59},"indices":56,"mode":4,"material":0},{"attributes":{"POSITION":61,"NORMAL":62,"TEXCOORD_0":63},"indices":60,"mode":4,"material":1}],"name":"hq1709"},{"primitives":[{"attributes":{"POSITION":65,"NORMAL":66,"TEXCOORD_0":67},"indices":64,"mode":4,"material":0},{"attributes":{"POSITION":69,"NORMAL":70,"TEXCOORD_0":71},"indices":68,"mode":4,"material":1}],"name":"hq1708"},{"primitives":[{"attributes":{"POSITION":73,"NORMAL":74,"TEXCOORD_0":75},"indices":72,"mode":4,"material":3}],"name":"hq1701"},{"primitives":[{"attributes":{"POSITION":77,"NORMAL":78,"TEXCOORD_0":79},"indices":76,"mode":4,"material":4}],"name":"hq1703"},{"primitives":[{"attributes":{"POSITION":81,"NORMAL":82,"TEXCOORD_0":83},"indices":80,"mode":4,"material":3}],"name":"hq1702"},{"primitives":[{"attributes":{"POSITION":85,"NORMAL":86,"TEXCOORD_0":87},"indices":84,"mode":4,"material":3},{"attributes":{"POSITION":89,"NORMAL":90,"TEXCOORD_0":91},"indices":88,"mode":4,"material":2},{"attributes":{"POSITION":93,"NORMAL":94,"TEXCOORD_0":95},"indices":92,"mode":4,"material":5},{"attributes":{"POSITION":97,"NORMAL":98,"TEXCOORD_0":99},"indices":96,"mode":4,"material":6},{"attributes":{"POSITION":101,"NORMAL":102,"TEXCOORD_0":103},"indices":100,"mode":4,"material":7},{"attributes":{"POSITION":105,"NORMAL":106,"TEXCOORD_0":107},"indices":104,"mode":4,"material":8},{"attributes":{"POSITION":109,"NORMAL":110,"TEXCOORD_0":111},"indices":108,"mode":4,"material":9},{"attributes":{"POSITION":113,"NORMAL":114,"TEXCOORD_0":115},"indices":112,"mode":4,"material":10}],"name":"hq1700"}],"accessors":[{"bufferView":0,"componentType":5123,"count":744,"type":"SCALAR","name":"accessorIndices"},{"bufferView":1,"componentType":5126,"count":744,"max":[2289.32568,-144.440979,1556.93616],"min":[1649.0304,-775.0083,-1559.474],"type":"VEC3","name":"accessorPositions"},{"bufferView":1,"byteOffset":8928,"componentType":5126,"count":744,"type":"VEC3","name":"accessorNormals"},{"bufferView":2,"componentType":5126,"count":744,"type":"VEC2","name":"accessorUVs"},{"bufferView":0,"byteOffset":1488,"componentType":5123,"count":312,"type":"SCALAR","name":"accessorIndices"},{"bufferView":1,"byteOffset":17856,"componentType":5126,"count":312,"max":[2217.02246,-215.646057,1556.93616],"min":[1721.33411,-703.803345,-1559.474],"type":"VEC3","name":"accessorPositions"},{"bufferView":1,"byteOffset":21600,"componentType":5126,"count":312,"type":"VEC3","name":"accessorNormals"},{"bufferView":2,"byteOffset":5952,"componentType":5126,"count":312,"type":"VEC2","name":"accessorUVs"},{"bufferView":0,"byteOffset":2112,"componentType":5123,"count":744,"type":"SCALAR","name":"accessorIndices"},{"bufferView":1,"byteOffset":25344,"componentType":5126,"count":744,"max":[3150.89355,-144.440979,1556.93591],"min":[2510.59766,-775.0083,-1559.47424],"type":"VEC3","name":"accessorPositions"},{"bufferView":1,"byteOffset":34272,"componentType":5126,"count":744,"type":"VEC3","name":"accessorNormals"},{"bufferView":2,"byteOffset":8448,"componentType":5126,"count":744,"type":"VEC2","name":"accessorUVs"},{"bufferView":0,"byteOffset":3600,"componentType":5123,"count":312,"type":"SCALAR","name":"accessorIndices"},{"bufferView":1,"byteOffset":43200,"componentType":5126,"count":312,"max":[3078.58984,-215.646057,1556.93591],"min":[2582.90186,-703.803345,-1559.47424],"type":"VEC3","name":"accessorPositions"},{"bufferView":1,"byteOffset":46944,"componentType":5126,"count":312,"type":"VEC3","name":"accessorNormals"},{"bufferView":2,"byteOffset":14400,"componentType":5126,"count":312,"type":"VEC2","name":"accessorUVs"},{"bufferView":0,"byteOffset":4224,"componentType":5123,"count":18,"type":"SCALAR","name":"accessorIndices"},{"bufferView":1,"byteOffset":50688,"componentType":5126,"count":18,"max":[-1822.13489,1950.06311,1554.53845],"min":[-2123.95679,1367.88733,-1733.19067],"type":"VEC3","name":"accessorPositions"},{"bufferView":1,"byteOffset":50904,"componentType":5126,"count":18,"type":"VEC3","name":"accessorNormals"},{"bufferView":2,"byteOffset":16896,"componentType":5126,"count":18,"type":"VEC2","name":"accessorUVs"},{"bufferView":0,"byteOffset":4260,"componentType":5123,"count":21858,"type":"SCALAR","name":"accessorIndices"},{"bufferView":1,"byteOffset":51120,"componentType":5126,"count":21858,"max":[2902.855,2876.54248,1624.17432],"min":[-2817.18652,1260.5531,-1736.32373],"type":"VEC3","name":"accessorPositions"},{"bufferView":1,"byteOffset":313416,"componentType":5126,"count":21858,"type":"VEC3","name":"accessorNormals"},{"bufferView":2,"byteOffset":17040,"componentType":5126,"count":21858,"type":"VEC2","name":"accessorUVs"},{"bufferView":0,"byteOffset":47976,"componentType":5123,"count":744,"type":"SCALAR","name":"accessorIndices"},{"bufferView":1,"byteOffset":575712,"componentType":5126,"count":744,"max":[-1904.29419,-144.441223,1556.93689],"min":[-2544.5896,-775.008545,-1559.47314],"type":"VEC3","name":"accessorPositions"},{"bufferView":1,"byteOffset":584640,"componentType":5126,"count":744,"type":"VEC3","name":"accessorNormals"},{"bufferView":2,"byteOffset":191904,"componentType":5126,"count":744,"type":"VEC2","name":"accessorUVs"},{"bufferView":0,"byteOffset":49464,"componentType":5123,"count":312,"type":"SCALAR","name":"accessorIndices"},{"bufferView":1,"byteOffset":593568,"componentType":5126,"count":312,"max":[-1976.59766,-215.646179,1556.93677],"min":[-2472.286,-703.803467,-1559.47314],"type":"VEC3","name":"accessorPositions"},{"bufferView":1,"byteOffset":597312,"componentType":5126,"count":312,"type":"VEC3","name":"accessorNormals"},{"bufferView":2,"byteOffset":197856,"componentType":5126,"count":312,"type":"VEC2","name":"accessorUVs"},{"bufferView":0,"byteOffset":50088,"componentType":5123,"count":744,"type":"SCALAR","name":"accessorIndices"},{"bufferView":1,"byteOffset":601056,"componentType":5126,"count":744,"max":[-2810.9292,129.443787,1556.937],"min":[-3451.22461,-501.123535,-1559.4729],"type":"VEC3","name":"accessorPositions"},{"bufferView":1,"byteOffset":609984,"componentType":5126,"count":744,"type":"VEC3","name":"accessorNormals"},{"bufferView":2,"byteOffset":200352,"componentType":5126,"count":744,"type":"VEC2","name":"accessorUVs"},{"bufferView":0,"byteOffset":51576,"componentType":5123,"count":312,"type":"SCALAR","name":"accessorIndices"},{"bufferView":1,"byteOffset":618912,"componentType":5126,"count":312,"max":[-2883.233,58.23877,1556.937],"min":[-3378.921,-429.918518,-1559.4729],"type":"VEC3","name":"accessorPositions"},{"bufferView":1,"byteOffset":622656,"componentType":5126,"count":312,"type":"VEC3","name":"accessorNormals"},{"bufferView":2,"byteOffset":206304,"componentType":5126,"count":312,"type":"VEC2","name":"accessorUVs"},{"bufferView":0,"byteOffset":52200,"componentType":5123,"count":744,"type":"SCALAR","name":"accessorIndices"},{"bufferView":1,"byteOffset":626400,"componentType":5126,"count":744,"max":[-1055.43286,-144.4411,1556.93677],"min":[-1695.72852,-775.0085,-1559.47327],"type":"VEC3","name":"accessorPositions"},{"bufferView":1,"byteOffset":635328,"componentType":5126,"count":744,"type":"VEC3","name":"accessorNormals"},{"bufferView":2,"byteOffset":208800,"componentType":5126,"count":744,"type":"VEC2","name":"accessorUVs"},{"bufferView":0,"byteOffset":53688,"componentType":5123,"count":312,"type":"SCALAR","name":"accessorIndices"},{"bufferView":1,"byteOffset":644256,"componentType":5126,"count":312,"max":[-1127.73657,-215.646179,1556.93677],"min":[-1623.42493,-703.803345,-1559.47327],"type":"VEC3","name":"accessorPositions"},{"bufferView":1,"byteOffset":648000,"componentType":5126,"count":312,"type":"VEC3","name":"accessorNormals"},{"bufferView":2,"byteOffset":214752,"componentType":5126,"count":312,"type":"VEC2","name":"accessorUVs"},{"bufferView":0,"byteOffset":54312,"componentType":5123,"count":744,"type":"SCALAR","name":"accessorIndices"},{"bufferView":1,"byteOffset":651744,"componentType":5126,"count":744,"max":[-206.890625,-144.4411,1556.9364],"min":[-847.1859,-775.0085,-1559.47363],"type":"VEC3","name":"accessorPositions"},{"bufferView":1,"byteOffset":660672,"componentType":5126,"count":744,"type":"VEC3","name":"accessorNormals"},{"bufferView":2,"byteOffset":217248,"componentType":5126,"count":744,"type":"VEC2","name":"accessorUVs"},{"bufferView":0,"byteOffset":55800,"componentType":5123,"count":312,"type":"SCALAR","name":"accessorIndices"},{"bufferView":1,"byteOffset":669600,"componentType":5126,"count":312,"max":[-279.194031,-215.646179,1556.9364],"min":[-774.8825,-703.803345,-1559.47363],"type":"VEC3","name":"accessorPositions"},{"bufferView":1,"byteOffset":673344,"componentType":5126,"count":312,"type":"VEC3","name":"accessorNormals"},{"bufferView":2,"byteOffset":223200,"componentType":5126,"count":312,"type":"VEC2","name":"accessorUVs"},{"bufferView":0,"byteOffset":56424,"componentType":5123,"count":744,"type":"SCALAR","name":"accessorIndices"},{"bufferView":1,"byteOffset":677088,"componentType":5126,"count":744,"max":[1476.28723,-144.4411,1556.9364],"min":[835.9918,-775.0085,-1559.47388],"type":"VEC3","name":"accessorPositions"},{"bufferView":1,"byteOffset":686016,"componentType":5126,"count":744,"type":"VEC3","name":"accessorNormals"},{"bufferView":2,"byteOffset":225696,"componentType":5126,"count":744,"type":"VEC2","name":"accessorUVs"},{"bufferView":0,"byteOffset":57912,"componentType":5123,"count":312,"type":"SCALAR","name":"accessorIndices"},{"bufferView":1,"byteOffset":694944,"componentType":5126,"count":312,"max":[1403.98364,-215.646179,1556.9364],"min":[908.2953,-703.803345,-1559.47388],"type":"VEC3","name":"accessorPositions"},{"bufferView":1,"byteOffset":698688,"componentType":5126,"count":312,"type":"VEC3","name":"accessorNormals"},{"bufferView":2,"byteOffset":231648,"componentType":5126,"count":312,"type":"VEC2","name":"accessorUVs"},{"bufferView":0,"byteOffset":58536,"componentType":5123,"count":744,"type":"SCALAR","name":"accessorIndices"},{"bufferView":1,"byteOffset":702432,"componentType":5126,"count":744,"max":[631.3772,-144.4411,1556.93652],"min":[-8.918091,-775.0085,-1559.47363],"type":"VEC3","name":"accessorPositions"},{"bufferView":1,"byteOffset":711360,"componentType":5126,"count":744,"type":"VEC3","name":"accessorNormals"},{"bufferView":2,"byteOffset":234144,"componentType":5126,"count":744,"type":"VEC2","name":"accessorUVs"},{"bufferView":0,"byteOffset":60024,"componentType":5123,"count":312,"type":"SCALAR","name":"accessorIndices"},{"bufferView":1,"byteOffset":720288,"componentType":5126,"count":312,"max":[559.0737,-215.646179,1556.93652],"min":[63.3853149,-703.803345,-1559.47363],"type":"VEC3","name":"accessorPositions"},{"bufferView":1,"byteOffset":724032,"componentType":5126,"count":312,"type":"VEC3","name":"accessorNormals"},{"bufferView":2,"byteOffset":240096,"componentType":5126,"count":312,"type":"VEC2","name":"accessorUVs"},{"bufferView":0,"byteOffset":60648,"componentType":5123,"count":2334,"type":"SCALAR","name":"accessorIndices"},{"bufferView":1,"byteOffset":727776,"componentType":5126,"count":2334,"max":[-1741.028,4267.918,1046.94678],"min":[-2497.65161,2901.11963,-1179.8092],"type":"VEC3","name":"accessorPositions"},{"bufferView":1,"byteOffset":755784,"componentType":5126,"count":2334,"type":"VEC3","name":"accessorNormals"},{"bufferView":2,"byteOffset":242592,"componentType":5126,"count":2334,"type":"VEC2","name":"accessorUVs"},{"bufferView":0,"byteOffset":65316,"componentType":5123,"count":3816,"type":"SCALAR","name":"accessorIndices"},{"bufferView":1,"byteOffset":783792,"componentType":5126,"count":3816,"max":[3880.454,208.317627,1622.55847],"min":[3186.734,-479.0562,-1600.23486],"type":"VEC3","name":"accessorPositions"},{"bufferView":1,"byteOffset":829584,"componentType":5126,"count":3816,"type":"VEC3","name":"accessorNormals"},{"bufferView":2,"byteOffset":261264,"componentType":5126,"count":3816,"type":"VEC2","name":"accessorUVs"},{"bufferView":0,"byteOffset":72948,"componentType":5123,"count":3348,"type":"SCALAR","name":"accessorIndices"},{"bufferView":1,"byteOffset":875376,"componentType":5126,"count":3348,"max":[2633.92773,2999.78076,789.783],"min":[1469.57581,1291.99084,-1330.01587],"type":"VEC3","name":"accessorPositions"},{"bufferView":1,"byteOffset":915552,"componentType":5126,"count":3348,"type":"VEC3","name":"accessorNormals"},{"bufferView":2,"byteOffset":291792,"componentType":5126,"count":3348,"type":"VEC2","name":"accessorUVs"},{"bufferView":0,"byteOffset":79644,"componentType":5123,"count":20739,"type":"SCALAR","name":"accessorIndices"},{"bufferView":1,"byteOffset":955728,"componentType":5126,"count":20739,"max":[4465.167,1351.52771,1648.63672],"min":[-4444.763,-334.099,-1710.20667],"type":"VEC3","name":"accessorPositions"},{"bufferView":1,"byteOffset":1204596,"componentType":5126,"count":20739,"type":"VEC3","name":"accessorNormals"},{"bufferView":2,"byteOffset":318576,"componentType":5126,"count":20739,"type":"VEC2","name":"accessorUVs"},{"bufferView":0,"byteOffset":121124,"componentType":5123,"count":12,"type":"SCALAR","name":"accessorIndices"},{"bufferView":1,"byteOffset":1453464,"componentType":5126,"count":12,"max":[3234.39941,928.08374,1564.88843],"min":[1411.229,264.3545,850.0417],"type":"VEC3","name":"accessorPositions"},{"bufferView":1,"byteOffset":1453608,"componentType":5126,"count":12,"type":"VEC3","name":"accessorNormals"},{"bufferView":2,"byteOffset":484488,"componentType":5126,"count":12,"type":"VEC2","name":"accessorUVs"},{"bufferView":0,"byteOffset":121148,"componentType":5123,"count":864,"type":"SCALAR","name":"accessorIndices"},{"bufferView":1,"byteOffset":1453752,"componentType":5126,"count":864,"max":[3894.19238,186.410156,1598.83459],"min":[-3524.52148,-839.8155,-1614.07434],"type":"VEC3","name":"accessorPositions"},{"bufferView":1,"byteOffset":1464120,"componentType":5126,"count":864,"type":"VEC3","name":"accessorNormals"},{"bufferView":2,"byteOffset":484584,"componentType":5126,"count":864,"type":"VEC2","name":"accessorUVs"},{"bufferView":0,"byteOffset":122876,"componentType":5123,"count":696,"type":"SCALAR","name":"accessorIndices"},{"bufferView":1,"byteOffset":1474488,"componentType":5126,"count":696,"max":[4085.11621,239.798828,1711.50378],"min":[-3920.20264,-187.544983,-1710.11133],"type":"VEC3","name":"accessorPositions"},{"bufferView":1,"byteOffset":1482840,"componentType":5126,"count":696,"type":"VEC3","name":"accessorNormals"},{"bufferView":2,"byteOffset":491496,"componentType":5126,"count":696,"type":"VEC2","name":"accessorUVs"},{"bufferView":0,"byteOffset":124268,"componentType":5123,"count":144,"type":"SCALAR","name":"accessorIndices"},{"bufferView":1,"byteOffset":1491192,"componentType":5126,"count":144,"max":[942.8634,1302.9469,805.250366],"min":[-3141.13232,1233.77112,-939.1634],"type":"VEC3","name":"accessorPositions"},{"bufferView":1,"byteOffset":1492920,"componentType":5126,"count":144,"type":"VEC3","name":"accessorNormals"},{"bufferView":2,"byteOffset":497064,"componentType":5126,"count":144,"type":"VEC2","name":"accessorUVs"},{"bufferView":0,"byteOffset":124556,"componentType":5123,"count":2040,"type":"SCALAR","name":"accessorIndices"},{"bufferView":1,"byteOffset":1494648,"componentType":5126,"count":2040,"max":[4090.853,3377.42188,1647.78088],"min":[-3997.34424,-180.46698,-1616.84949],"type":"VEC3","name":"accessorPositions"},{"bufferView":1,"byteOffset":1519128,"componentType":5126,"count":2040,"type":"VEC3","name":"accessorNormals"},{"bufferView":2,"byteOffset":498216,"componentType":5126,"count":2040,"type":"VEC2","name":"accessorUVs"},{"bufferView":0,"byteOffset":128636,"componentType":5123,"count":195,"type":"SCALAR","name":"accessorIndices"},{"bufferView":1,"byteOffset":1543608,"componentType":5126,"count":195,"max":[-3790.442,852.7875,1482.84985],"min":[-3805.1626,697.9828,-1482.65222],"type":"VEC3","name":"accessorPositions"},{"bufferView":1,"byteOffset":1545948,"componentType":5126,"count":195,"type":"VEC3","name":"accessorNormals"},{"bufferView":2,"byteOffset":514536,"componentType":5126,"count":195,"type":"VEC2","name":"accessorUVs"},{"bufferView":0,"byteOffset":129028,"componentType":5123,"count":639,"type":"SCALAR","name":"accessorIndices"},{"bufferView":1,"byteOffset":1548288,"componentType":5126,"count":639,"max":[-4200.76367,400.743164,1217.93091],"min":[-4477.79053,22.25824,-1268.06726],"type":"VEC3","name":"accessorPositions"},{"bufferView":1,"byteOffset":1555956,"componentType":5126,"count":639,"type":"VEC3","name":"accessorNormals"},{"bufferView":2,"byteOffset":516096,"componentType":5126,"count":639,"type":"VEC2","name":"accessorUVs"}],"bufferViews":[{"buffer":0,"byteLength":130308,"name":"bufferViewScalar"},{"buffer":0,"byteOffset":130308,"byteLength":1563624,"byteStride":12,"name":"bufferViewFloatVec3"},{"buffer":0,"byteOffset":1693932,"byteLength":521208,"byteStride":8,"name":"bufferViewFloatVec2"}],"buffers":[{"uri":"红旗17车辆.bin","byteLength":2215140}],"materials":[{"pbrMetallicRoughness":{"baseColorFactor":[1.0,1.0,1.0,1.0],"baseColorTexture":{"index":0,"texCoord":0},"metallicFactor":0.0,"roughnessFactor":0.9},"emissiveFactor":[0.0,0.0,0.0],"alphaMode":"BLEND","name":"Material #161769"},{"pbrMetallicRoughness":{"baseColorFactor":[1.0,1.0,1.0,1.0],"baseColorTexture":{"index":1,"texCoord":0},"metallicFactor":0.0,"roughnessFactor":0.9},"emissiveFactor":[0.0,0.0,0.0],"alphaMode":"BLEND","name":"Material #161807"},{"pbrMetallicRoughness":{"baseColorFactor":[1.0,1.0,1.0,1.0],"baseColorTexture":{"index":2,"texCoord":0},"metallicFactor":0.0,"roughnessFactor":0.9},"emissiveFactor":[0.0,0.0,0.0],"alphaMode":"BLEND","name":"Material #161820"},{"pbrMetallicRoughness":{"baseColorFactor":[1.0,1.0,1.0,1.0],"baseColorTexture":{"index":0,"texCoord":0},"metallicFactor":0.0,"roughnessFactor":0.9},"emissiveFactor":[0.0,0.0,0.0],"alphaMode":"BLEND","name":"Material #161802"},{"pbrMetallicRoughness":{"baseColorFactor":[1.0,1.0,1.0,1.0],"baseColorTexture":{"index":4,"texCoord":0},"metallicFactor":0.0,"roughnessFactor":0.9},"emissiveFactor":[0.0,0.0,0.0],"alphaMode":"BLEND","name":"Material #161819"},{"pbrMetallicRoughness":{"baseColorFactor":[1.0,1.0,1.0,1.0],"baseColorTexture":{"index":5,"texCoord":0},"metallicFactor":0.0,"roughnessFactor":0.9},"emissiveFactor":[0.0,0.0,0.0],"alphaMode":"BLEND","name":"Material #161806"},{"pbrMetallicRoughness":{"baseColorFactor":[0.337511569,0.337511569,0.337511569,1.0],"metallicFactor":0.9838473,"roughnessFactor":0.61},"emissiveFactor":[0.0,0.0,0.0],"alphaMode":"OPAQUE","name":"black1"},{"pbrMetallicRoughness":{"baseColorFactor":[0.008169936,0.008169936,0.008169936,1.0],"metallicFactor":0.0,"roughnessFactor":0.9},"emissiveFactor":[0.0,0.0,0.0],"alphaMode":"OPAQUE","name":"mirror"},{"pbrMetallicRoughness":{"baseColorFactor":[0.337511569,0.337511569,0.337511569,1.0],"metallicFactor":0.9838473,"roughnessFactor":0.61},"emissiveFactor":[0.0,0.0,0.0],"alphaMode":"OPAQUE","name":"black"},{"pbrMetallicRoughness":{"baseColorFactor":[0.637522638,0.6456237,0.3256306,1.0],"metallicFactor":0.0957326,"roughnessFactor":0.580000043},"emissiveFactor":[0.0,0.0,0.0],"alphaMode":"OPAQUE","name":"yellow"},{"pbrMetallicRoughness":{"baseColorFactor":[0.5013682,0.5013682,0.43098256,1.0],"metallicFactor":0.7831803,"roughnessFactor":0.25},"emissiveFactor":[0.0,0.0,0.0],"alphaMode":"OPAQUE","name":"Material #161805"}],"textures":[{"sampler":0,"source":0,"name":"HQ1701.jpg"},{"sampler":0,"source":1,"name":"HQ1703.png"},{"sampler":0,"source":2,"name":"HQ1705.png"},{"sampler":0,"source":0,"name":"HQ1701.jpg"},{"sampler":0,"source":3,"name":"HQ1702.png"},{"sampler":0,"source":4,"name":"HQ1704.jpg"}],"images":[{"uri":"HQ1701.jpg"},{"uri":"HQ1703.png"},{"uri":"HQ1705.png"},{"uri":"HQ1702.png"},{"uri":"HQ1704.jpg"}],"samplers":[{"magFilter":9729,"minFilter":9987,"wrapS":10497,"wrapT":10497}]}